<svg width="40" height="40" viewBox="0 0 40 40" fill="none" xmlns="http://www.w3.org/2000/svg">
<g clip-path="url(#clip0_517_11195)">
<path d="M25.9564 6.33808C27.2305 4.79815 28.1259 2.70667 28.0809 0.576357C28.0734 0.218623 27.747 -0.047002 27.3933 0.00698238C25.524 0.292607 23.4344 1.46331 22.1409 2.97761C20.9488 4.35597 19.8909 6.498 19.9704 8.62058C19.9824 8.94042 20.2526 9.19534 20.5725 9.18628C22.6357 9.12792 24.6727 7.89245 25.9564 6.33808Z" fill="#D6D6D8"/>
<path d="M21.5802 8.62055C21.4569 5.32985 23.9396 1.48625 27.9695 0.247111C27.843 0.0732045 27.6243 -0.0282798 27.3934 0.00695453C25.5241 0.29258 23.4345 1.46328 22.141 2.97758C20.9489 4.35594 19.8909 6.49805 19.9705 8.62055C19.9824 8.94039 20.2527 9.19531 20.5726 9.18625C20.9727 9.17492 21.3716 9.11891 21.7644 9.02531C21.6562 8.92281 21.5862 8.77977 21.5802 8.62055Z" fill="#C2C2C4"/>
<path d="M35.9144 29.1173C34.6192 28.4652 31.0446 26.2148 31.0004 21.224C30.9626 17.1386 33.6735 14.763 34.8267 13.9336C35.1005 13.7366 35.1606 13.3512 34.9525 13.0859C33.9943 11.8644 32.8739 11.0809 31.7977 10.573C31.7983 10.5729 31.7991 10.5727 31.7997 10.5726C31.6603 10.5068 31.4217 10.4023 31.2306 10.327C25.815 8.19523 22.4021 11.4628 20.3346 11.4628C18.7517 11.4628 16.3092 9.67429 13.7212 9.72312C10.3205 9.77249 7.18815 11.7014 5.43447 14.7452C2.744 19.415 3.63127 25.7987 5.72744 30.7739L5.72736 30.7741C5.78104 30.9013 5.8665 31.0994 5.93775 31.2593C5.93783 31.2591 5.93783 31.2591 5.93791 31.2589C6.54518 32.6227 7.24041 33.8689 7.97283 34.9283C9.65463 37.3591 11.661 40.0976 14.2971 39.9969C16.8344 39.8963 17.7936 38.3565 20.8599 38.3565C23.9242 38.3565 24.7885 39.9969 27.4713 39.9481C30.2024 39.8963 31.9317 37.4674 33.6021 35.025C35.0721 32.8789 35.8831 30.7842 36.2081 29.8412C36.305 29.5601 36.1801 29.251 35.9144 29.1173Z" fill="#D6D6D8"/>
<path d="M9.58258 34.9287C8.85016 33.8694 8.15493 32.6231 7.54766 31.2594C7.54766 31.2594 7.54758 31.2596 7.5475 31.2597C7.47633 31.0999 7.39157 30.9035 7.33711 30.7745L7.33719 30.7744C5.25391 25.83 4.34414 19.4319 7.04422 14.7456C8.66383 11.9347 11.4595 10.0758 14.5563 9.76889C14.2802 9.73569 14.0016 9.71834 13.7213 9.72358C10.3206 9.77295 7.18821 11.7019 5.43453 14.7456C2.74407 19.4155 3.63133 25.7992 5.7275 30.7744L5.72742 30.7745C5.7811 30.9018 5.86657 31.0998 5.93782 31.2597C5.93789 31.2596 5.93797 31.2595 5.93797 31.2594C6.54524 32.6231 7.24047 33.8694 7.97282 34.9287C9.65461 37.3596 11.6609 40.098 14.2971 39.9974C14.5565 39.9871 14.7987 39.9612 15.029 39.924C12.8174 39.4755 11.0724 37.0822 9.58258 34.9287Z" fill="#C2C2C4"/>
</g>
<defs>
<clipPath id="clip0_517_11195">
<rect width="40" height="40" fill="white"/>
</clipPath>
</defs>
</svg>
