<svg width="24" height="24" viewBox="0 0 24 24" fill="none" xmlns="http://www.w3.org/2000/svg">
<path d="M19.6893 12.4048C19.6893 11.9369 19.31 11.5576 18.8422 11.5576C18.3743 11.5576 17.995 11.9369 17.995 12.4048C17.9945 15.7158 15.31 18.3994 11.9991 18.3989C8.6888 18.3984 6.00542 15.715 6.00492 12.4048C6.00492 11.9369 5.62563 11.5576 5.15777 11.5576C4.6899 11.5576 4.31061 11.9369 4.31061 12.4048C4.31508 16.3217 7.26016 19.6107 11.1528 20.0461V22.3052H8.07202C7.60416 22.3052 7.22487 22.6845 7.22487 23.1524C7.22487 23.6202 7.60416 23.9995 8.07202 23.9995H15.928C16.3958 23.9995 16.7751 23.6202 16.7751 23.1524C16.7751 22.6845 16.3958 22.3052 15.928 22.3052H12.8472V20.0461C16.7398 19.6107 19.6849 16.3217 19.6893 12.4048Z" fill="#BDBDBD"/>
<path d="M12 0C9.39083 0 7.27563 2.11514 7.27563 4.72434V12.3742C7.27872 14.9821 9.3921 17.0954 12 17.0985C14.6079 17.0954 16.7212 14.9821 16.7243 12.3742V4.72434C16.7243 2.11514 14.6092 0 12 0Z" fill="#BDBDBD"/>
</svg>
