<svg width="40" height="40" viewBox="0 0 40 40" fill="none" xmlns="http://www.w3.org/2000/svg">
<path fill-rule="evenodd" clip-rule="evenodd" d="M0.550011 19.0991C0.550011 19.0991 1.45014 18.9505 1.82104 19.3382C2.1923 19.7258 1.94902 20.5276 1.45639 20.5409C0.963758 20.5541 0.508453 20.6452 0.185179 20.3018C-0.138095 19.9584 -0.0513 19.2685 0.550011 19.0991ZM10.3155 24.5714C10.2288 24.5805 10.1371 24.5407 10.0432 24.4736C9.39813 23.5741 9.16514 20.4979 8.86904 20.3146C8.56203 20.1246 7.45014 22.0191 5.23859 21.8154C4.31384 21.7301 3.37272 21.1304 2.81851 20.7153C2.87005 20.0162 2.87901 18.384 4.25642 18.9148C5.09317 19.2371 6.52605 20.1224 7.78445 18.5327C9.17584 16.7744 9.94315 17.2852 10.4035 17.6674C10.8636 18.0495 10.557 20.0371 11.2433 19.4815C11.9296 18.9259 14.7008 15.4759 14.7008 15.4759C14.7008 15.4759 16.8462 13.3105 17.1747 15.5868C17.5034 17.8632 18.9022 20.386 19.273 20.3142C19.644 20.2421 23.9597 11.4639 24.5779 10.8976C25.196 10.3311 27.2768 10.4055 27.1779 11.8584C27.0789 13.3113 26.8672 22.3418 26.8672 22.3418C26.8672 22.3418 26.623 24.8866 27.0206 23.5266C27.1854 22.9627 27.3626 22.4541 27.584 21.8607C28.6491 18.448 30.4635 12.6182 31.3675 9.61425C31.5754 8.89544 31.7544 8.27846 31.8933 7.80424C31.9472 7.58443 32.0013 7.40904 32.0552 7.25364C32.1307 6.99902 32.1818 6.83057 32.1974 6.78617C32.2379 6.67388 32.3512 6.58814 32.5104 6.52524C32.6702 6.42448 32.8416 6.41926 33.036 6.41425C33.5378 6.3692 34.183 6.43471 34.7632 6.60011C34.9323 6.60685 35.1162 6.66104 35.2899 6.78596C35.2899 6.78596 35.3003 6.79249 35.315 6.80206C35.319 6.80512 35.323 6.80729 35.3272 6.81056C35.3635 6.83579 35.4224 6.88563 35.4906 6.96768C35.4925 6.97028 35.4947 6.97355 35.4971 6.97595C35.5253 7.01056 35.5538 7.05147 35.5826 7.09804C35.9066 7.57377 36.1058 8.45081 35.9061 10.0062C35.4085 13.8874 35.0234 21.8717 35.0234 21.8717C35.0234 21.8717 34.9467 22.2536 35.7461 20.5721C35.7741 20.5135 35.8096 20.463 35.8424 20.4093C35.8856 20.3808 35.9341 20.3399 35.9941 20.2676C36.4878 19.6783 37.8155 19.3322 38.736 19.3392C39.1242 19.3862 39.449 19.4839 39.6432 19.6067C40.0066 20.1601 39.792 22.2026 39.792 22.2026C39.0262 22.2735 37.5662 22.6859 37.0488 22.7621C36.531 22.8386 35.745 26.2021 34.6522 25.8581C33.5592 25.5141 31.1238 23.9853 31.1238 23.7751C31.1238 23.592 31.3154 21.3576 31.3651 20.781C31.3688 20.7412 31.3717 20.7042 31.3747 20.6674C31.3758 20.6567 31.377 20.6443 31.377 20.6443C31.4123 20.1901 31.3806 19.9923 31.171 20.4456C30.9906 20.8356 30.2061 23.3304 29.3314 26.0479C29.2389 26.2853 27.5858 31.2925 27.3686 31.9029C27.1098 32.6111 26.892 33.1531 26.7418 33.4335C26.513 33.7439 26.2046 33.9381 25.7742 33.8077C24.7006 33.4831 23.3408 31.9983 23.3282 31.6298C23.3024 29.5519 23.4291 18.3792 22.9258 19.3103C22.4091 20.265 18.3922 26.8901 18.3922 26.8901C18.325 26.9016 18.275 26.8994 18.216 26.9048C17.9314 26.8738 17.4907 26.7811 17.369 26.5087C17.3621 26.4927 17.3534 26.4781 17.3475 26.4613C17.3416 26.4443 17.335 26.4255 17.325 26.3944C17.2704 26.2122 17.2482 26.0141 17.2002 25.8519C17.0205 25.245 16.7328 24.3751 16.431 23.4903C15.9688 21.9815 15.4921 20.438 15.4137 20.2676C15.2604 19.9342 15.0371 20.0748 14.8366 20.2674C13.94 21.0284 12.0355 24.3877 10.3155 24.5714Z" fill="url(#paint0_linear_517_11754)"/>
<defs>
<linearGradient id="paint0_linear_517_11754" x1="-18.032" y1="19.5086" x2="9.22917" y2="55.7314" gradientUnits="userSpaceOnUse">
<stop stop-color="#FFBE00"/>
<stop offset="1" stop-color="#E85E0A"/>
</linearGradient>
</defs>
</svg>
