<svg width="24" height="24" viewBox="0 0 24 24" fill="none" xmlns="http://www.w3.org/2000/svg">
<path d="M23.5861 19.8618H0.413812C0.185297 19.8618 0 19.6765 0 19.448V4.55151C0 4.32299 0.185297 4.1377 0.413812 4.1377H23.5862C23.8147 4.1377 24 4.32299 24 4.55151V19.448C24 19.6766 23.8147 19.8618 23.5861 19.8618Z" fill="#41479B"/>
<path d="M11.5862 4.1377H10.8674L7.03442 6.64897V4.1377H4.96546V6.64897L1.1325 4.1377H0.413812C0.185297 4.1377 0 4.32294 0 4.55146V4.87968L3.28851 7.03419H0V9.10315H3.28851L0 11.2577V11.5859C0 11.8144 0.185297 11.9997 0.413812 11.9997H1.13259L4.96555 9.48847V11.9997H7.03452V9.48847L10.8674 11.9997H11.5862C11.8147 11.9997 12 11.8144 12 11.5859V11.2577L8.71151 9.1032H12V7.03424H8.71147L12 4.87973V4.55151C12 4.32295 11.8147 4.1377 11.5862 4.1377Z" fill="#F5F5F5"/>
<path d="M12 7.44805H6.62066V4.1377H5.37932V7.44805H0V8.68939H5.37932V11.9997H6.62066V8.68939H12V7.44805Z" fill="#FF4B55"/>
<path d="M4.55169 7.03461L0.197203 4.20801C0.081328 4.28132 0 4.40455 0 4.55184V4.5733L3.79166 7.03461H4.55169Z" fill="#FF4B55"/>
<path d="M7.79451 7.03424L11.937 4.34521C11.865 4.22338 11.738 4.1377 11.5862 4.1377H11.4967L7.03448 7.03424H7.79451Z" fill="#FF4B55"/>
<path d="M4.19411 9.10352L0.0595093 11.7874C0.130806 11.9122 0.259806 12.0001 0.413837 12.0001H0.491883L4.95419 9.10352H4.19411Z" fill="#FF4B55"/>
<path d="M11.9934 11.6187L8.11843 9.10352H7.3584L11.7587 11.9598C11.8905 11.8987 11.981 11.7705 11.9934 11.6187Z" fill="#FF4B55"/>
<path d="M6.1252 14.2564L6.43753 15.2875L7.43844 14.8889C7.52385 14.8548 7.60148 14.9522 7.54935 15.0279L6.93791 15.9149L7.87363 16.4489C7.95346 16.4945 7.92576 16.6159 7.83407 16.6223L6.75927 16.6973L6.92526 17.7619C6.93941 17.8527 6.8272 17.9068 6.76504 17.839L6.03623 17.0455L5.30742 17.839C5.24526 17.9067 5.13304 17.8527 5.1472 17.7619L5.31318 16.6973L4.23839 16.6223C4.1467 16.6159 4.119 16.4945 4.19883 16.4489L5.13454 15.9149L4.52311 15.0279C4.47098 14.9522 4.54861 14.8548 4.63401 14.8889L5.63493 15.2875L5.94726 14.2564C5.97403 14.1684 6.09857 14.1684 6.1252 14.2564Z" fill="#F5F5F5"/>
<path d="M18.4349 6.92482L18.5875 7.42849L19.0764 7.23377C19.1181 7.21718 19.156 7.26471 19.1305 7.30169L18.8319 7.73505L19.289 7.99591C19.328 8.01813 19.3144 8.07747 19.2696 8.08056L18.7446 8.11722L18.8257 8.6372C18.8326 8.68159 18.7778 8.70799 18.7474 8.67489L18.3914 8.28728L18.0354 8.67489C18.005 8.70794 17.9502 8.68155 17.9571 8.6372L18.0381 8.11722L17.5131 8.08056C17.4683 8.07747 17.4548 8.01813 17.4938 7.99591L17.9508 7.73505L17.6522 7.30169C17.6267 7.26471 17.6647 7.21718 17.7063 7.23377L18.1952 7.42849L18.3478 6.92482C18.361 6.88183 18.4219 6.88183 18.4349 6.92482Z" fill="#F5F5F5"/>
<path d="M15.0329 10.791L15.1855 11.2947L15.6744 11.1C15.716 11.0834 15.754 11.1309 15.7285 11.1679L15.4299 11.6013L15.8869 11.8621C15.9259 11.8843 15.9124 11.9437 15.8676 11.9468L15.3426 11.9834L15.4236 12.5034C15.4306 12.5478 15.3757 12.5742 15.3454 12.5411L14.9893 12.1535L14.6333 12.5411C14.6029 12.5741 14.5481 12.5478 14.555 12.5034L14.6361 11.9834L14.1111 11.9468C14.0663 11.9437 14.0527 11.8843 14.0917 11.8621L14.5488 11.6013L14.2502 11.1679C14.2247 11.1309 14.2626 11.0834 14.3043 11.1L14.7932 11.2947L14.9458 10.791C14.959 10.748 15.0199 10.748 15.0329 10.791Z" fill="#F5F5F5"/>
<path d="M21.6536 9.13575L21.8061 9.63942L22.295 9.44471C22.3367 9.42811 22.3747 9.47564 22.3492 9.51263L22.0505 9.94599L22.5076 10.2068C22.5466 10.2291 22.5331 10.2884 22.4883 10.2915L21.9633 10.3282L22.0443 10.8481C22.0513 10.8925 21.9964 10.9189 21.9661 10.8858L21.6101 10.4982L21.254 10.8858C21.2237 10.9189 21.1689 10.8925 21.1758 10.8481L21.2568 10.3282L20.7318 10.2915C20.687 10.2884 20.6735 10.2291 20.7125 10.2068L21.1695 9.94599L20.8709 9.51263C20.8454 9.47564 20.8834 9.42811 20.925 9.44471L21.4139 9.63942L21.5665 9.13575C21.5797 9.09277 21.6405 9.09277 21.6536 9.13575Z" fill="#F5F5F5"/>
<path d="M18.4349 15.7568L18.5875 16.2605L19.0764 16.0658C19.1181 16.0492 19.156 16.0967 19.1305 16.1337L18.8319 16.567L19.289 16.8279C19.328 16.8501 19.3144 16.9095 19.2696 16.9125L18.7446 16.9492L18.8257 17.4692C18.8326 17.5136 18.7778 17.54 18.7474 17.5069L18.3914 17.1193L18.0354 17.5069C18.005 17.5399 17.9502 17.5135 17.9571 17.4692L18.0381 16.9492L17.5131 16.9125C17.4683 16.9095 17.4548 16.8501 17.4938 16.8279L17.9508 16.567L17.6522 16.1337C17.6267 16.0967 17.6647 16.0492 17.7063 16.0658L18.1952 16.2605L18.3478 15.7568C18.361 15.7139 18.4219 15.7139 18.4349 15.7568Z" fill="#F5F5F5"/>
<path d="M19.6153 11.6958L19.4928 12.0632L19.1057 12.0662C19.0556 12.0666 19.0348 12.1305 19.0751 12.1603L19.3866 12.3903L19.2698 12.7594C19.2547 12.8072 19.3091 12.8468 19.3498 12.8176L19.6648 12.5925L19.9798 12.8176C20.0206 12.8468 20.075 12.8072 20.0599 12.7594L19.9431 12.3903L20.2545 12.1603C20.2949 12.1305 20.274 12.0666 20.2239 12.0662L19.8368 12.0632L19.7143 11.6958C19.6984 11.6483 19.6312 11.6483 19.6153 11.6958Z" fill="#F5F5F5"/>
</svg>
