<svg width="32" height="32" viewBox="0 0 32 32" fill="none" xmlns="http://www.w3.org/2000/svg">
<rect width="32" height="32" rx="8" fill="#2C2C2C"/>
<path fill-rule="evenodd" clip-rule="evenodd" d="M6.01953 8.95312H24.6V21.4901H6.01953V8.95312Z" fill="#66CC99"/>
<path fill-rule="evenodd" clip-rule="evenodd" d="M24.5993 16.4902V21.4895H19.3477C19.1636 21.0373 19.0625 20.543 19.0625 20.025C19.0625 17.873 20.8066 16.1289 22.9586 16.1289C23.5449 16.1289 24.1005 16.2584 24.5993 16.4902Z" fill="#4DBA83"/>
<path fill-rule="evenodd" clip-rule="evenodd" d="M10.1793 10.2539H20.4404C20.4404 11.8332 21.7209 13.1137 23.3003 13.1137V17.3314C21.7209 17.3314 20.4404 18.6119 20.4404 20.1912H10.1793C10.1793 18.6119 8.89883 17.3314 7.31836 17.3314V13.1137C8.89883 13.1137 10.1793 11.8332 10.1793 10.2539Z" fill="#339966"/>
<path fill-rule="evenodd" clip-rule="evenodd" d="M23.2994 16.1436V17.3298C21.7201 17.3298 20.4396 18.6104 20.4396 20.1897H19.0659C19.0636 20.1352 19.0625 20.0795 19.0625 20.025C19.0625 17.873 20.8066 16.1289 22.9586 16.1289C23.0733 16.1289 23.1869 16.1334 23.2994 16.1436Z" fill="#2B8958"/>
<path fill-rule="evenodd" clip-rule="evenodd" d="M22.9587 17.0039C24.6266 17.0039 25.9798 18.356 25.9798 20.0251C25.9798 21.693 24.6266 23.0462 22.9587 23.0462C21.2896 23.0462 19.9375 21.693 19.9375 20.0251C19.9375 18.356 21.2896 17.0039 22.9587 17.0039Z" fill="#DF646E"/>
<path d="M24.2621 18.9176L22.0737 21.4889C22.0182 21.5541 21.9393 21.5876 21.8599 21.5876C21.7956 21.5876 21.7309 21.5657 21.6781 21.5207C21.5601 21.4202 21.5458 21.2431 21.6463 21.1251L23.8346 18.5538C23.935 18.4358 24.1122 18.4216 24.2302 18.522C24.3483 18.6225 24.3625 18.7996 24.2621 18.9176ZM24.6709 20.8434C24.6562 20.6598 24.571 20.4931 24.4308 20.374C24.2911 20.2548 24.1132 20.1974 23.93 20.2118C23.7464 20.2265 23.5796 20.3118 23.461 20.4514C23.3414 20.5914 23.2835 20.7696 23.2981 20.9531C23.3128 21.1368 23.3982 21.3036 23.5387 21.4231C23.6643 21.5298 23.8203 21.5869 23.9833 21.5869C24.0025 21.5869 24.0219 21.5861 24.0413 21.5845C24.2245 21.5694 24.3907 21.4837 24.5083 21.3446C24.6278 21.2048 24.6855 21.0268 24.6709 20.8434ZM21.9894 19.8382C22.1726 19.823 22.3388 19.7374 22.4564 19.5982C22.5758 19.4585 22.6335 19.2805 22.6189 19.097C22.6042 18.9134 22.519 18.7467 22.3789 18.6276C22.239 18.5083 22.061 18.4509 21.8774 18.4655C21.6942 18.4803 21.5275 18.5653 21.4076 18.7057C21.1618 18.995 21.1973 19.4306 21.4867 19.6768C21.6123 19.7834 21.7683 19.8405 21.9313 19.8405C21.9506 19.8405 21.9699 19.8398 21.9894 19.8382Z" fill="#E2F0FA"/>
<path fill-rule="evenodd" clip-rule="evenodd" d="M15.3087 18.8146C17.2891 18.8146 18.9036 17.2 18.9036 15.2208C18.9036 13.2415 17.2891 11.627 15.3087 11.627C13.3294 11.627 11.7148 13.2415 11.7148 15.2208C11.7148 17.2001 13.3294 18.8146 15.3087 18.8146Z" fill="#4DBA83"/>
<path d="M15.921 14.941H14.6996C14.2188 14.941 14.0905 14.55 14.0905 14.3189C14.0905 14.153 14.1463 13.9941 14.2434 13.8832C14.3518 13.7596 14.5052 13.6969 14.6996 13.6969H16.8107C16.9657 13.6969 17.0913 13.5712 17.0913 13.4162C17.0913 13.2613 16.9656 13.1356 16.8107 13.1356H15.5904V12.6107C15.5904 12.4557 15.4647 12.3301 15.3097 12.3301C15.1548 12.3301 15.0291 12.4557 15.0291 12.6107V13.1356H14.6996C14.2472 13.1356 13.9723 13.3411 13.8213 13.5134C13.633 13.7284 13.5293 14.0145 13.5293 14.319C13.5293 14.907 13.9313 15.5023 14.6996 15.5023H15.9211C16.4018 15.5023 16.5301 15.8934 16.5301 16.1244C16.5301 16.2904 16.4744 16.4492 16.3772 16.5601C16.2688 16.6838 16.1154 16.7465 15.9211 16.7465H13.8099C13.6549 16.7465 13.5293 16.8721 13.5293 17.0271C13.5293 17.1821 13.655 17.3077 13.8099 17.3077H15.0291V17.8327C15.0291 17.9877 15.1548 18.1133 15.3097 18.1133C15.4647 18.1133 15.5904 17.9876 15.5904 17.8327V17.3077H15.921C16.3734 17.3077 16.6484 17.1023 16.7994 16.9299C16.9876 16.715 17.0913 16.4289 17.0913 16.1244C17.0913 15.5363 16.6893 14.941 15.921 14.941Z" fill="#E2F0FA"/>
<path d="M21.35 15.1704C21.3362 14.9972 21.2557 14.8401 21.1234 14.7278C20.9911 14.6151 20.8231 14.5605 20.6499 14.5744C20.4771 14.5882 20.32 14.6684 20.2069 14.8011C19.9751 15.0749 20.0087 15.4858 20.2809 15.7162C20.3997 15.8176 20.5474 15.872 20.7018 15.872C20.7193 15.872 20.737 15.8713 20.7546 15.8699C20.9275 15.856 21.0845 15.7758 21.1977 15.6432C21.3097 15.5109 21.3638 15.343 21.35 15.1704Z" fill="#66CC99"/>
<path d="M10.3382 14.7278C10.206 14.6151 10.0379 14.5605 9.86479 14.5744C9.69194 14.5882 9.53487 14.6684 9.42174 14.8011C9.18994 15.0749 9.2235 15.4858 9.49573 15.7162C9.61452 15.8176 9.76229 15.872 9.91666 15.872C9.93416 15.872 9.95182 15.8713 9.96948 15.8699C10.1423 15.856 10.2994 15.7758 10.4125 15.6432C10.6442 15.3696 10.6108 14.9591 10.3382 14.7278Z" fill="#66CC99"/>
</svg>
