<svg width="40" height="40" viewBox="0 0 40 40" fill="none" xmlns="http://www.w3.org/2000/svg">
<path d="M40 6.93506H31.3513V11.9821H40V6.93506Z" fill="#00AC6D"/>
<path d="M40 13.9639H31.3513V19.0109H40V13.9639Z" fill="url(#paint0_linear_517_12028)"/>
<path d="M40 20.9893H31.3513V26.0363H40V20.9893Z" fill="url(#paint1_linear_517_12028)"/>
<path d="M8.64852 28.0181H0V33.0651H8.64852V28.0181Z" fill="url(#paint2_linear_517_12028)"/>
<path d="M19.0978 28.0181H10.4493V33.0651H19.0978V28.0181Z" fill="url(#paint3_linear_517_12028)"/>
<path d="M29.5506 28.0181H20.902V33.0651H29.5506V28.0181Z" fill="url(#paint4_linear_517_12028)"/>
<path d="M40 28.0181H31.3513V33.0651H40V28.0181Z" fill="url(#paint5_linear_517_12028)"/>
<path d="M29.5506 20.9893H20.902V26.0363H29.5506V20.9893Z" fill="url(#paint6_linear_517_12028)"/>
<path d="M19.0978 20.9893H10.4493V26.0363H19.0978V20.9893Z" fill="url(#paint7_linear_517_12028)"/>
<path d="M19.0978 13.9639H10.4493V19.0109H19.0978V13.9639Z" fill="url(#paint8_linear_517_12028)"/>
<defs>
<linearGradient id="paint0_linear_517_12028" x1="36.2382" y1="19.6749" x2="35.113" y2="13.2999" gradientUnits="userSpaceOnUse">
<stop stop-color="#008C9E"/>
<stop offset="0.04" stop-color="#008E9B"/>
<stop offset="0.39" stop-color="#009C82"/>
<stop offset="0.72" stop-color="#00A573"/>
<stop offset="1" stop-color="#00A86D"/>
</linearGradient>
<linearGradient id="paint1_linear_517_12028" x1="31.2219" y1="25.7823" x2="40.1294" y2="21.2433" gradientUnits="userSpaceOnUse">
<stop stop-color="#1836BE"/>
<stop offset="1" stop-color="#008CB5"/>
</linearGradient>
<linearGradient id="paint2_linear_517_12028" x1="0" y1="30.5416" x2="8.64855" y2="30.5416" gradientUnits="userSpaceOnUse">
<stop stop-color="#FFA600"/>
<stop offset="1" stop-color="#FF9100"/>
</linearGradient>
<linearGradient id="paint3_linear_517_12028" x1="10.4493" y1="30.5416" x2="19.0978" y2="30.5416" gradientUnits="userSpaceOnUse">
<stop stop-color="#FF9100"/>
<stop offset="1" stop-color="#F22B60"/>
</linearGradient>
<linearGradient id="paint4_linear_517_12028" x1="20.902" y1="30.5416" x2="29.5505" y2="30.5416" gradientUnits="userSpaceOnUse">
<stop stop-color="#D1127F"/>
<stop offset="1" stop-color="#4D2AB1"/>
</linearGradient>
<linearGradient id="paint5_linear_517_12028" x1="31.3513" y1="30.5416" x2="40" y2="30.5416" gradientUnits="userSpaceOnUse">
<stop stop-color="#1836BE"/>
<stop offset="1" stop-color="#0073BA"/>
</linearGradient>
<linearGradient id="paint6_linear_517_12028" x1="20.5628" y1="24.8763" x2="29.8897" y2="22.1492" gradientUnits="userSpaceOnUse">
<stop stop-color="#D1127F"/>
<stop offset="1" stop-color="#3337B0"/>
</linearGradient>
<linearGradient id="paint7_linear_517_12028" x1="10.144" y1="21.8285" x2="19.4031" y2="25.197" gradientUnits="userSpaceOnUse">
<stop stop-color="#FFCB00"/>
<stop offset="1" stop-color="#F22B60"/>
</linearGradient>
<linearGradient id="paint8_linear_517_12028" x1="11.1807" y1="13.1714" x2="18.3664" y2="19.8034" gradientUnits="userSpaceOnUse">
<stop stop-color="#FFCF00"/>
<stop offset="1" stop-color="#FF7534"/>
</linearGradient>
</defs>
</svg>
