<svg width="32" height="32" viewBox="0 0 32 32" fill="none" xmlns="http://www.w3.org/2000/svg">
<rect width="32" height="32" rx="8" fill="#3A5CFF" fill-opacity="0.1"/>
<mask id="mask0_521_1562" style="mask-type:alpha" maskUnits="userSpaceOnUse" x="4" y="4" width="24" height="24">
<rect x="4" y="4" width="24" height="24" fill="#D9D9D9"/>
</mask>
<g mask="url(#mask0_521_1562)">
<path d="M16 20L11 15L12.4 13.55L15 16.15V8H17V16.15L19.6 13.55L21 15L16 20ZM10 24C9.45 24 8.97917 23.8042 8.5875 23.4125C8.19583 23.0208 8 22.55 8 22V19H10V22H22V19H24V22C24 22.55 23.8042 23.0208 23.4125 23.4125C23.0208 23.8042 22.55 24 22 24H10Z" fill="#3A5CFF"/>
</g>
</svg>
