<svg width="32" height="32" viewBox="0 0 32 32" fill="none" xmlns="http://www.w3.org/2000/svg">
<rect width="32" height="32" rx="8" fill="#2C2C2C"/>
<g clip-path="url(#clip0_952_5463)">
<path d="M6 15.8627L19.3667 14.752L19.3669 16.1095L19.365 16.1096C19.3729 17.1841 18.5925 18.3191 17.0587 19.2046C14.2685 20.8155 10.0477 20.9905 7.63129 19.5954C6.53188 18.9606 5.9973 18.11 6.00187 17.2199L6.00004 17.22L6 15.8627Z" fill="url(#paint0_linear_952_5463)"/>
<path d="M6 17.1791L19.3667 16.0684L19.3669 17.4259L19.365 17.4261C19.3729 18.5005 18.5925 19.6355 17.0587 20.521C14.2685 22.1319 10.0477 22.3069 7.63129 20.9118C6.53188 20.277 5.9973 19.4264 6.00187 18.5363L6.00004 18.5364L6 17.1791Z" fill="url(#paint1_linear_952_5463)"/>
<path d="M6 18.4935L19.3667 17.3828L19.3669 18.7404L19.365 18.7405C19.3729 19.815 18.5925 20.9499 17.0587 21.8354C14.2685 23.4464 10.0477 23.6213 7.63129 22.2262C6.53188 21.5914 5.9973 20.7409 6.00187 19.8507L6.00004 19.8509L6 18.4935Z" fill="url(#paint2_linear_952_5463)"/>
<path d="M6 17.1791L19.3667 16.0684L19.3669 17.4259L19.365 17.4261C19.3729 18.5005 18.5925 19.6355 17.0587 20.521C14.2685 22.1319 10.0477 22.3069 7.63129 20.9118C6.53188 20.277 5.9973 19.4264 6.00187 18.5363L6.00004 18.5364L6 17.1791Z" fill="url(#paint3_linear_952_5463)"/>
<path d="M6 15.8627L19.3667 14.752L19.3669 16.1095L19.365 16.1096C19.3729 17.1841 18.5925 18.3191 17.0587 19.2046C14.2685 20.8155 10.0477 20.9905 7.63129 19.5954C6.53188 18.9606 5.9973 18.11 6.00187 17.2199L6.00004 17.22L6 15.8627Z" fill="url(#paint4_linear_952_5463)"/>
<path d="M6 14.5482L19.3667 13.4375L19.3669 14.795L19.365 14.7952C19.3729 15.8696 18.5925 17.0046 17.0587 17.8901C14.2685 19.5011 10.0477 19.676 7.63129 18.2809C6.53188 17.6461 5.9973 16.7956 6.00187 15.9054L6.00004 15.9056L6 14.5482Z" fill="url(#paint5_linear_952_5463)"/>
<path d="M6 13.2318L19.3667 12.1211L19.3669 13.4786L19.365 13.4788C19.3729 14.5532 18.5925 15.6882 17.0587 16.5737C14.2685 18.1846 10.0477 18.3596 7.63129 16.9645C6.53188 16.3298 5.9973 15.4792 6.00187 14.5891L6.00004 14.5892L6 13.2318Z" fill="url(#paint6_linear_952_5463)"/>
<path d="M17.0587 15.2168C14.2685 16.8277 10.0477 17.0027 7.63132 15.6076C5.21492 14.2125 5.51796 11.7756 8.30816 10.1647C11.0984 8.55372 15.3192 8.37876 17.7356 9.77388C20.152 11.169 19.8489 13.6059 17.0587 15.2168Z" fill="url(#paint7_linear_952_5463)"/>
<path d="M16.2495 14.7487C13.9754 16.0616 10.5353 16.2042 8.56591 15.0672C6.59646 13.9301 6.84345 11.944 9.11755 10.6311C11.3917 9.31809 14.8317 9.17551 16.8012 10.3125C18.7706 11.4496 18.5236 13.4357 16.2495 14.7487Z" fill="url(#paint8_linear_952_5463)"/>
<path d="M15.3179 13.8989L15.7137 14.1274C15.89 14.2292 15.9092 14.3832 15.7565 14.4713C15.6038 14.5595 15.3372 14.5484 15.1609 14.4467L14.7842 14.2292C14.3669 14.4386 13.8798 14.5948 13.4249 14.6734C13.1443 14.7219 12.8151 14.6215 12.686 14.4516L12.6851 14.4504C12.5536 14.2773 12.6761 14.0936 12.9613 14.0438C13.3102 13.9829 13.6567 13.8806 13.9478 13.7464L12.8817 13.1309C12.0956 13.3857 11.1738 13.6451 10.2609 13.118C9.58419 12.7273 9.42896 12.1461 10.1876 11.5754L9.79818 11.3506C9.62189 11.2488 9.60275 11.0949 9.7554 11.0067C9.90806 10.9186 10.1747 10.9297 10.351 11.0314L10.7277 11.2489C11.0255 11.106 11.3571 10.9883 11.6993 10.9111C11.9809 10.8475 12.3318 10.9369 12.477 11.1118C12.6176 11.2812 12.5088 11.4643 12.2352 11.5249C11.9849 11.5803 11.7625 11.6515 11.5704 11.7354L12.6557 12.362C13.4354 12.1035 14.3461 11.8504 15.2463 12.3702C15.9102 12.7534 16.0646 13.3277 15.3179 13.8989ZM11.9433 12.589L11.0367 12.0656C10.8203 12.279 10.8893 12.4529 11.1 12.5745C11.3234 12.7036 11.6106 12.6778 11.9433 12.589ZM14.4328 12.9283C14.2093 12.7993 13.9277 12.8218 13.5942 12.9038L14.4752 13.4124C14.6814 13.2122 14.6371 13.0462 14.4328 12.9283Z" fill="url(#paint9_linear_952_5463)"/>
<path d="M24.3138 10.2975L23.1421 9.62715C22.3733 9.17711 21.368 9.2159 20.2679 9.85106C17.8514 11.2462 15.8926 14.9889 15.8926 18.2108C15.8926 19.9407 16.4575 21.1682 17.3544 21.7186L17.3545 21.7187C17.4011 21.7473 18.7031 22.4808 18.7031 22.4808C21.2834 17.0398 24.4281 10.3504 24.3138 10.2975Z" fill="url(#paint10_linear_952_5463)"/>
<path d="M17.25 18.9785C17.25 22.2004 19.2089 23.6813 21.6253 22.2861C24.0417 20.8911 26.0005 17.1483 26.0005 13.9264C26.0005 10.7045 24.0417 9.22369 21.6253 10.6188C19.2089 12.0139 17.25 15.7567 17.25 18.9785Z" fill="url(#paint11_linear_952_5463)"/>
<path d="M18.0586 18.5109C18.0586 21.1368 19.6552 22.3437 21.6246 21.2067C23.594 20.0696 25.1905 17.0192 25.1905 14.3933C25.1905 11.7674 23.594 10.5604 21.6246 11.6974C19.6551 12.8345 18.0586 15.885 18.0586 18.5109Z" fill="url(#paint12_linear_952_5463)"/>
<path d="M21.8248 18.9813V19.4383C21.8248 19.6419 21.701 19.8784 21.5483 19.9665C21.3957 20.0547 21.2719 19.9611 21.2719 19.7576V19.3226C20.8819 19.5163 20.5031 19.6099 20.2075 19.5965C20.0253 19.5883 19.9475 19.3427 20.0302 19.0504L20.0308 19.0483C20.115 18.7509 20.3353 18.5106 20.5211 18.5182C20.7483 18.5276 21.0101 18.4741 21.2719 18.3569V17.1258C20.6582 17.2811 19.9727 17.4042 19.9727 16.35C19.9727 15.5686 20.3984 14.652 21.2719 14.0149V13.5652C21.2719 13.3617 21.3957 13.1252 21.5484 13.0371C21.701 12.9489 21.8248 13.0425 21.8248 13.2461V13.681C22.0974 13.5527 22.3652 13.4717 22.6031 13.4547C22.7989 13.4408 22.897 13.6761 22.8181 13.9803C22.7417 14.275 22.5288 14.5182 22.3395 14.5301C22.1664 14.541 21.9935 14.5836 21.8248 14.654V15.9072C22.4385 15.7445 23.113 15.6279 23.113 16.6673C23.113 17.434 22.6928 18.3401 21.8248 18.9813ZM21.2719 16.0422V14.9954C20.9788 15.2531 20.8627 15.5339 20.8627 15.7771C20.8627 16.0351 21.0286 16.0794 21.2719 16.0422ZM22.2228 17.2697C22.2228 17.0117 22.0625 16.9643 21.8247 16.9909V18.0082C22.1012 17.7675 22.2228 17.5056 22.2228 17.2697Z" fill="url(#paint13_linear_952_5463)"/>
</g>
<defs>
<linearGradient id="paint0_linear_952_5463" x1="7.88449" y1="17.6445" x2="12.5758" y2="17.6445" gradientUnits="userSpaceOnUse">
<stop stop-color="#E37A34"/>
<stop offset="1" stop-color="#FFA538"/>
</linearGradient>
<linearGradient id="paint1_linear_952_5463" x1="7.88449" y1="18.961" x2="12.5758" y2="18.961" gradientUnits="userSpaceOnUse">
<stop stop-color="#E37A34"/>
<stop offset="1" stop-color="#FFA538"/>
</linearGradient>
<linearGradient id="paint2_linear_952_5463" x1="7.88449" y1="20.2754" x2="12.5758" y2="20.2754" gradientUnits="userSpaceOnUse">
<stop stop-color="#E37A34"/>
<stop offset="1" stop-color="#FFA538"/>
</linearGradient>
<linearGradient id="paint3_linear_952_5463" x1="7.19895" y1="18.961" x2="17.4025" y2="18.961" gradientUnits="userSpaceOnUse">
<stop stop-color="#BA5C25"/>
<stop offset="0.5196" stop-color="#E37A34"/>
<stop offset="1" stop-color="#FFA538"/>
</linearGradient>
<linearGradient id="paint4_linear_952_5463" x1="7.88449" y1="17.6445" x2="12.5758" y2="17.6445" gradientUnits="userSpaceOnUse">
<stop stop-color="#E37A34"/>
<stop offset="1" stop-color="#FFA538"/>
</linearGradient>
<linearGradient id="paint5_linear_952_5463" x1="7.19895" y1="16.3301" x2="17.4025" y2="16.3301" gradientUnits="userSpaceOnUse">
<stop stop-color="#BA5C25"/>
<stop offset="0.5196" stop-color="#E37A34"/>
<stop offset="1" stop-color="#FFA538"/>
</linearGradient>
<linearGradient id="paint6_linear_952_5463" x1="7.88449" y1="15.0137" x2="12.5758" y2="15.0137" gradientUnits="userSpaceOnUse">
<stop stop-color="#E37A34"/>
<stop offset="1" stop-color="#FFA538"/>
</linearGradient>
<linearGradient id="paint7_linear_952_5463" x1="5.90525" y1="16.6017" x2="7.53862" y2="8.124" gradientUnits="userSpaceOnUse">
<stop stop-color="#FFC538"/>
<stop offset="1" stop-color="#F7E041"/>
</linearGradient>
<linearGradient id="paint8_linear_952_5463" x1="7.15912" y1="15.8769" x2="8.49037" y2="8.96736" gradientUnits="userSpaceOnUse">
<stop stop-color="#E37A34"/>
<stop offset="1" stop-color="#FFA538"/>
</linearGradient>
<linearGradient id="paint9_linear_952_5463" x1="10.3924" y1="13.1916" x2="11.9631" y2="10.4712" gradientUnits="userSpaceOnUse">
<stop stop-color="#FFC538"/>
<stop offset="1" stop-color="#F7E041"/>
</linearGradient>
<linearGradient id="paint10_linear_952_5463" x1="18.1755" y1="17.4931" x2="21.5114" y2="11.7152" gradientUnits="userSpaceOnUse">
<stop stop-color="#E37A34"/>
<stop offset="1" stop-color="#FFA538"/>
</linearGradient>
<linearGradient id="paint11_linear_952_5463" x1="21.6253" y1="24.2795" x2="21.6253" y2="11.0945" gradientUnits="userSpaceOnUse">
<stop stop-color="#FFC538"/>
<stop offset="1" stop-color="#F7E041"/>
</linearGradient>
<linearGradient id="paint12_linear_952_5463" x1="21.6246" y1="22.8313" x2="21.6246" y2="12.0852" gradientUnits="userSpaceOnUse">
<stop stop-color="#E37A34"/>
<stop offset="1" stop-color="#FFA538"/>
</linearGradient>
<linearGradient id="paint13_linear_952_5463" x1="19.9726" y1="16.5018" x2="23.113" y2="16.5018" gradientUnits="userSpaceOnUse">
<stop stop-color="#FFC538"/>
<stop offset="1" stop-color="#F7E041"/>
</linearGradient>
<clipPath id="clip0_952_5463">
<rect width="20" height="20" fill="white" transform="translate(6 6)"/>
</clipPath>
</defs>
</svg>
