<svg width="40" height="40" viewBox="0 0 40 40" fill="none" xmlns="http://www.w3.org/2000/svg">
<g clip-path="url(#clip0_517_12586)">
<path d="M11.5155 23.5391C8.99206 21.3047 7.71863 18.9766 7.71863 16.7656C7.71863 14.5547 8.96081 12.2422 10.6014 11.2109C11.4061 10.8672 11.7421 11.8516 11.2264 12.1953C9.92175 13.0156 8.8905 14.9375 8.8905 16.7812C8.8905 18.625 10.0389 20.6562 12.2968 22.6562C12.8436 23.3359 11.9999 23.9453 11.5233 23.5313L11.5155 23.5391ZM15.3046 21.5469C13.5936 20.5859 12.4452 18.7109 12.4452 16.9062C12.4452 15.1016 13.4218 13.4922 14.9686 12.6875C15.7889 12.3984 16.0624 13.4141 15.5155 13.7188C14.3436 14.3281 13.6171 15.5391 13.6171 16.8594C13.6249 18.2969 14.5311 19.7656 15.8827 20.5234C16.5624 21.0781 15.8358 21.8281 15.3046 21.5547V21.5469ZM19.9999 19.8359C18.6014 19.8359 17.4608 18.7031 17.4608 17.3047C17.4608 15.9062 18.6014 14.7656 19.9999 14.7656V12.3672C18.4843 10.1094 15.8749 8.55469 12.9452 8.55469C8.28894 8.55469 4.5155 12.3281 4.5155 16.9844C4.5155 19.9375 6.3905 22.0703 8.34363 24.0391L15.9921 31.2734C16.4843 31.5781 17.0468 31.375 17.0546 30.8203V25.1875C17.0546 23.5547 18.3749 22.2344 20.0077 22.2344L19.9999 19.8359Z" fill="#C6002B"/>
<path d="M28.3282 23.5391C30.8517 21.3047 32.1251 18.9766 32.1251 16.7656C32.1251 14.5547 30.8829 12.2422 29.2423 11.2109C28.4376 10.8672 28.1017 11.8516 28.6173 12.1953C29.922 13.0156 30.9532 14.9375 30.9532 16.7812C30.9532 18.625 29.8048 20.6562 27.547 22.6562C27.0001 23.3359 27.8439 23.9453 28.3204 23.5313L28.3282 23.5391ZM24.5392 21.5469C26.2501 20.5859 27.3986 18.7109 27.3986 16.9062C27.3986 15.1016 26.422 13.4922 24.8751 12.6875C24.0548 12.3984 23.7814 13.4141 24.3282 13.7188C25.5001 14.3281 26.2267 15.5391 26.2267 16.8594C26.2189 18.2969 25.3126 19.7656 23.9611 20.5234C23.2814 21.0781 24.0079 21.8281 24.5392 21.5547V21.5469ZM19.8439 19.8359C21.2423 19.8359 22.3829 18.7031 22.3829 17.3047C22.3829 15.9062 21.2423 14.7656 19.8439 14.7656V12.3672C21.3595 10.1094 23.9689 8.55469 26.8986 8.55469C31.5548 8.55469 35.3282 12.3281 35.3282 16.9844C35.3282 19.9375 33.4532 22.0703 31.5001 24.0391L23.8517 31.2734C23.3595 31.5781 22.797 31.375 22.7892 30.8203V25.1875C22.7892 23.5547 21.4689 22.2344 19.8361 22.2344L19.8439 19.8359Z" fill="#C6002B"/>
</g>
<defs>
<clipPath id="clip0_517_12586">
<rect width="40" height="40" fill="white"/>
</clipPath>
</defs>
</svg>
