<svg width="24" height="24" viewBox="0 0 24 24" fill="none" xmlns="http://www.w3.org/2000/svg">
<g clip-path="url(#clip0_517_13375)">
<path d="M6.01782 12.7295H4.94153C4.65918 12.7295 4.4043 12.8976 4.2926 13.1565L1.31311 20.0942L8.38904 16.4802C7.54199 15.3082 6.70392 14.0154 6.01782 12.7295Z" fill="#BDBDBD"/>
<path d="M19.7073 13.1565C19.5958 12.8976 19.3408 12.7295 19.0586 12.7295H17.9823C16.6866 15.1575 14.799 17.6666 13.5982 19.047C12.7537 20.0156 11.2453 20.0145 10.4021 19.047C10.3159 18.9479 9.8656 18.4266 9.24542 17.625L7.96973 18.2769L12.7953 23.0931L21.9388 18.3528L19.7073 13.1565Z" fill="#BDBDBD"/>
<path d="M0.442563 22.1223L0.0576758 23.0186C-0.141543 23.4824 0.199766 24.0004 0.706418 24.0004H11.0682C11.133 23.9522 11.1337 23.9551 11.4816 23.7748L6.64892 18.9521L0.442563 22.1223Z" fill="#BDBDBD"/>
<path d="M23.9424 23.0179L22.4966 19.6514L14.1089 23.9998H23.2936C23.7992 23.9998 24.142 23.4827 23.9424 23.0179Z" fill="#BDBDBD"/>
<path d="M12.7059 6.34308C12.7059 5.95453 12.3892 5.63867 12.0001 5.63867C11.6108 5.63867 11.2942 5.95453 11.2942 6.34308C11.2942 6.73145 11.6108 7.04749 12.0001 7.04749C12.3892 7.04749 12.7059 6.73145 12.7059 6.34308Z" fill="#BDBDBD"/>
<path d="M12.5327 18.0758C12.7703 17.803 18.3527 11.3456 18.3527 6.90676C18.3527 -2.24632 5.64734 -2.35801 5.64734 6.90676C5.64734 11.3456 11.2297 17.803 11.4673 18.0758C11.7488 18.3986 12.2518 18.3983 12.5327 18.0758ZM9.88239 6.34334C9.88239 5.17806 10.8323 4.23012 12 4.23012C13.1675 4.23012 14.1174 5.17806 14.1174 6.34334C14.1174 7.50844 13.1675 8.45638 12 8.45638C10.8323 8.45638 9.88239 7.50844 9.88239 6.34334Z" fill="#BDBDBD"/>
</g>
<defs>
<clipPath id="clip0_517_13375">
<rect width="24" height="24" fill="white"/>
</clipPath>
</defs>
</svg>
