
<!-- Generator: visioncortex VTracer 0.6.4 -->
<svg version="1.1" xmlns="http://www.w3.org/2000/svg" viewBox="0 0 512 512" preserveAspectRatio="xMidYMid meet">
<path d="M0 0 C1.514 0.001 1.514 0.001 3.059 0.002 C19.569 0.042 35.485 0.95 51.688 4.375 C52.729 4.595 53.771 4.814 54.845 5.041 C101.933 15.312 143.861 38.205 178.688 71.375 C179.586 72.23 179.586 72.23 180.502 73.103 C188.846 81.106 196.491 89.325 203.377 98.616 C204.705 100.399 206.061 102.159 207.422 103.918 C214.781 113.544 220.895 123.744 226.688 134.375 C227.049 135.035 227.411 135.696 227.784 136.376 C245.512 169.127 256.684 207.344 256.891 244.73 C256.898 245.587 256.905 246.443 256.912 247.325 C256.929 250.071 256.936 252.816 256.938 255.562 C256.939 256.973 256.939 256.973 256.94 258.411 C256.923 272.619 256.373 286.389 253.688 300.375 C253.454 301.701 253.454 301.701 253.216 303.054 C246.074 343.21 228.949 381.381 203.688 413.375 C202.742 414.609 202.742 414.609 201.777 415.867 C196.162 423.085 189.992 429.761 183.688 436.375 C183.214 436.872 182.74 437.369 182.252 437.881 C175.801 444.602 169.019 450.636 161.688 456.375 C160.703 457.165 159.718 457.955 158.703 458.77 C125.645 485.058 86.104 501.843 44.688 509.375 C43.801 509.54 42.914 509.705 42 509.875 C14.66 514.735 -16.051 514.644 -43.312 509.375 C-44.24 509.203 -45.168 509.032 -46.125 508.855 C-85.193 501.501 -124.191 485.464 -155.312 460.375 C-156.242 459.636 -157.171 458.898 -158.129 458.137 C-174.283 445.128 -189.658 430.859 -202.009 414.136 C-203.361 412.309 -204.736 410.502 -206.113 408.695 C-212.483 400.267 -218.103 391.561 -223.312 382.375 C-223.967 381.242 -224.622 380.109 -225.297 378.941 C-237.734 356.911 -245.867 332.667 -251.125 308 C-251.32 307.087 -251.515 306.173 -251.716 305.232 C-254.96 289.078 -255.688 273.185 -255.625 256.75 C-255.623 255.732 -255.621 254.714 -255.618 253.664 C-255.569 239.043 -255.263 224.744 -252.312 210.375 C-252.114 209.362 -251.915 208.35 -251.71 207.307 C-244.34 170.451 -229.546 135.73 -207.312 105.375 C-206.896 104.802 -206.48 104.229 -206.052 103.639 C-200.499 96.039 -194.446 89.074 -187.977 82.25 C-185.332 79.468 -185.332 79.468 -183.184 76.699 C-181.484 74.588 -179.818 72.925 -177.75 71.188 C-174.518 68.436 -171.408 65.592 -168.312 62.688 C-135.568 32.957 -94.121 13.806 -51.125 4.625 C-50.2 4.426 -49.275 4.227 -48.323 4.022 C-32.238 0.755 -16.372 -0.033 0 0 Z " fill="#00AB94" transform="translate(255.3125,-0.375)"/>
<path d="M0 0 C1.317 0.03 1.317 0.03 2.661 0.061 C11.81 0.462 17.739 2.942 24.062 9.625 C29.445 16.451 29.88 23.2 29.062 31.688 C26.928 41.982 21.269 46.935 12.798 52.684 C11.258 53.694 9.715 54.697 8.168 55.695 C7.319 56.25 6.47 56.806 5.596 57.378 C3.769 58.572 1.941 59.764 0.11 60.953 C-4.818 64.157 -9.733 67.382 -14.648 70.605 C-15.662 71.27 -16.676 71.934 -17.72 72.618 C-31.083 81.388 -44.312 90.356 -57.546 99.318 C-59.188 100.428 -60.83 101.537 -62.473 102.643 C-66.836 105.582 -71.18 108.544 -75.504 111.54 C-77.358 112.809 -79.212 114.078 -81.066 115.348 C-81.907 115.938 -82.747 116.528 -83.613 117.136 C-91.999 122.839 -100.722 125.964 -110.938 124.688 C-115.225 123.748 -119.424 122.557 -123.638 121.338 C-128.052 120.089 -132.497 118.961 -136.938 117.812 C-138.921 117.296 -140.904 116.779 -142.887 116.262 C-147.868 114.965 -152.85 113.671 -157.835 112.388 C-159.777 111.88 -161.715 111.357 -163.649 110.819 C-168.047 109.608 -172.234 108.581 -176.785 108.184 C-183.146 107.447 -187.794 106.191 -192.083 101.18 C-196.476 94.937 -200.145 88.31 -203.739 81.586 C-207.194 75.126 -210.988 68.897 -214.836 62.665 C-216.624 59.76 -218.384 56.838 -220.148 53.918 C-222.418 50.173 -224.707 46.444 -227.039 42.738 C-227.476 42.036 -227.913 41.334 -228.363 40.611 C-229.455 38.86 -230.559 37.117 -231.664 35.375 C-232.938 32.688 -232.938 32.688 -232.764 30.688 C-231.672 28.044 -230.457 27.408 -227.992 25.988 C-227.169 25.505 -226.346 25.022 -225.499 24.525 C-224.612 24.022 -223.726 23.518 -222.812 23 C-220.984 21.937 -219.156 20.873 -217.328 19.809 C-216.417 19.284 -215.507 18.759 -214.568 18.218 C-212.187 16.833 -209.831 15.416 -207.484 13.973 C-206.817 13.563 -206.149 13.153 -205.461 12.731 C-204.234 11.976 -203.008 11.217 -201.785 10.454 C-188.081 2.112 -170.827 4.89 -155.879 8.353 C-145.177 10.996 -134.646 14.222 -124.168 17.639 C-120.951 18.683 -117.725 19.691 -114.496 20.699 C-112.455 21.36 -110.415 22.022 -108.375 22.688 C-106.993 23.113 -106.993 23.113 -105.584 23.546 C-97.464 26.277 -91.502 30.825 -86.746 37.988 C-86.294 38.982 -85.841 39.976 -85.375 41 C-84.899 42.007 -84.424 43.014 -83.934 44.051 C-82.938 46.688 -82.938 46.688 -82.938 49.688 C-75.351 44.922 -67.894 39.996 -60.5 34.938 C-58.877 33.83 -57.254 32.723 -55.631 31.617 C-54.498 30.845 -53.366 30.072 -52.234 29.3 C-46.085 25.104 -39.927 20.922 -33.767 16.742 C-31.417 15.147 -29.068 13.551 -26.719 11.955 C-25.104 10.86 -23.484 9.774 -21.864 8.687 C-20.041 7.441 -18.24 6.161 -16.478 4.83 C-10.971 0.758 -6.817 -0.257 0 0 Z " fill="#FEFEFE" transform="translate(390.9375,258.3125)"/>
<path d="M0 0 C1.922 1.391 1.922 1.391 3.75 3.25 C12.584 11.515 22.735 12.555 34.371 12.34 C43.855 11.874 51.056 7.642 57.867 1.258 C60 0 60 0 62.84 0.117 C73.74 3.162 82.734 9.459 91 17 C91.695 17.614 92.39 18.227 93.105 18.859 C106.63 31.494 117.369 50.324 119.304 68.926 C119 72 119 72 117.139 73.947 C115.852 74.776 115.852 74.776 114.539 75.621 C113.592 76.247 112.644 76.873 111.668 77.518 C110.664 78.151 109.66 78.785 108.625 79.438 C106.679 80.706 104.734 81.976 102.789 83.246 C101.349 84.17 101.349 84.17 99.88 85.113 C96.166 87.546 92.565 90.124 88.974 92.735 C87 94 87 94 85 94 C84.994 93.403 84.988 92.806 84.982 92.191 C84.918 85.994 84.834 79.798 84.738 73.602 C84.704 71.288 84.676 68.973 84.654 66.659 C84.62 63.337 84.568 60.016 84.512 56.695 C84.502 55.136 84.502 55.136 84.492 53.545 C84.473 52.584 84.453 51.623 84.432 50.633 C84.421 49.785 84.41 48.937 84.399 48.063 C84.267 47.382 84.136 46.701 84 46 C80.776 43.851 79.733 43.617 76 44 C73.444 46.556 73.732 47.541 73.681 51.092 C73.661 52.153 73.641 53.214 73.621 54.307 C73.609 55.456 73.598 56.605 73.586 57.789 C73.567 58.963 73.547 60.136 73.527 61.345 C73.467 65.105 73.421 68.865 73.375 72.625 C73.337 75.169 73.298 77.714 73.258 80.258 C73.162 86.505 73.077 92.752 73 99 C70.429 99.1 67.861 99.173 65.289 99.23 C64.203 99.277 64.203 99.277 63.094 99.324 C59.514 99.384 57.351 99.223 54.298 97.281 C52.952 95.902 51.624 94.505 50.312 93.094 C45.778 88.988 39.745 87.763 34 86 C31.499 85.149 28.999 84.295 26.5 83.438 C19.386 81.086 12.22 78.997 5 77 C3.374 76.547 1.747 76.094 0.121 75.641 C-4.251 74.423 -8.625 73.21 -13 72 C-13.03 70.834 -13.03 70.834 -13.06 69.645 C-13.155 66.138 -13.265 62.632 -13.375 59.125 C-13.406 57.902 -13.437 56.678 -13.469 55.418 C-13.527 53.668 -13.527 53.668 -13.586 51.883 C-13.617 50.804 -13.649 49.725 -13.681 48.614 C-13.747 45.842 -13.747 45.842 -16 44 C-19.566 44.164 -19.566 44.164 -23 45 C-24.258 47.517 -24.208 49.413 -24.316 52.227 C-24.379 53.773 -24.379 53.773 -24.443 55.352 C-24.483 56.432 -24.522 57.512 -24.562 58.625 C-24.627 60.257 -24.627 60.257 -24.693 61.922 C-24.8 64.614 -24.902 67.307 -25 70 C-25.71 69.99 -26.42 69.979 -27.152 69.968 C-30.414 69.926 -33.676 69.901 -36.938 69.875 C-38.613 69.85 -38.613 69.85 -40.322 69.824 C-46.89 69.786 -52.653 70.291 -59 72 C-59.523 54.879 -51.053 37.701 -40 25 C-39.567 24.425 -39.134 23.85 -38.688 23.258 C-31.917 14.513 -22.246 8.32 -12.5 3.375 C-11.495 2.861 -11.495 2.861 -10.469 2.336 C-6.895 0.607 -3.977 -0.727 0 0 Z " fill="#FDFEFE" transform="translate(248,188)"/>
<path d="M0 0 C4.195 0.771 5.669 3.279 8.062 6.562 C9.459 8.733 10.806 10.936 12.109 13.164 C12.478 13.789 12.846 14.415 13.225 15.059 C14.014 16.4 14.801 17.743 15.586 19.087 C17.697 22.703 19.826 26.308 21.953 29.914 C22.385 30.647 22.816 31.379 23.26 32.134 C27.298 38.983 31.422 45.776 35.562 52.562 C37.284 55.4 39.005 58.239 40.726 61.077 C42.695 64.322 44.674 67.56 46.665 70.792 C48.918 74.45 51.154 78.118 53.381 81.792 C54.245 83.211 55.115 84.626 55.991 86.038 C57.211 88.003 58.408 89.98 59.602 91.961 C59.968 92.541 60.335 93.121 60.713 93.719 C62.424 96.608 63.065 98.421 62.994 101.805 C61.955 104.881 61.358 105.656 58.617 107.281 C57.881 107.732 57.144 108.183 56.385 108.647 C55.577 109.114 54.77 109.581 53.938 110.062 C53.105 110.563 52.273 111.063 51.416 111.579 C49.607 112.666 47.795 113.745 45.979 114.818 C42.91 116.654 39.883 118.546 36.859 120.453 C34.802 121.74 32.745 123.026 30.688 124.312 C29.708 124.933 28.728 125.554 27.718 126.193 C26.793 126.764 25.867 127.334 24.914 127.922 C24.098 128.432 23.281 128.942 22.44 129.468 C19.698 130.73 18.044 131.02 15.062 130.562 C13.543 129.272 13.543 129.272 12.25 127.379 C11.745 126.644 11.239 125.91 10.719 125.153 C7.415 119.985 4.214 114.762 1.062 109.5 C0.31 108.251 -0.443 107.002 -1.197 105.753 C-2.721 103.226 -4.243 100.699 -5.764 98.17 C-8.865 93.018 -11.995 87.884 -15.125 82.75 C-16.259 80.888 -17.393 79.026 -18.527 77.164 C-19.364 75.79 -19.364 75.79 -20.218 74.388 C-22.003 71.455 -23.785 68.521 -25.566 65.586 C-26.167 64.597 -26.768 63.608 -27.387 62.589 C-28.572 60.638 -29.756 58.686 -30.939 56.734 C-33.589 52.368 -36.264 48.026 -39.039 43.738 C-39.511 43.005 -39.982 42.272 -40.468 41.517 C-41.334 40.178 -42.208 38.845 -43.095 37.52 C-45.353 34.021 -46.536 31.726 -45.938 27.562 C-44.273 25.851 -44.273 25.851 -41.867 24.297 C-40.953 23.702 -40.039 23.107 -39.097 22.494 C-33.133 18.848 -27.119 15.302 -21.062 11.812 C-19.101 10.68 -17.141 9.546 -15.182 8.408 C-13.421 7.387 -11.658 6.37 -9.895 5.353 C-6.996 3.672 -6.996 3.672 -4.722 1.862 C-2.938 0.562 -2.938 0.562 0 0 Z " fill="#FCFEFE" transform="translate(137.9375,277.4375)"/>
<path d="M0 0 C13.692 7.586 21.873 17.518 26.469 32.484 C28.922 44.795 26.002 56.779 19.703 67.414 C12.609 77.755 2.587 84.795 -9.609 87.977 C-21.807 90.083 -33.625 88.452 -44.109 81.602 C-45.453 80.615 -46.788 79.617 -48.109 78.602 C-49.409 77.735 -49.409 77.735 -50.734 76.852 C-57.596 70.351 -61.446 62.565 -64.109 53.602 C-64.301 52.991 -64.494 52.38 -64.691 51.75 C-67.11 39.318 -64.866 27.005 -57.984 16.414 C-44.268 -1.738 -21.417 -9.83 0 0 Z " fill="#FDFEFE" transform="translate(297.109375,107.3984375)"/>
<path d="M0 0 C2.491 3.737 2.207 5.745 2.125 10.188 C2.107 11.46 2.089 12.732 2.07 14.043 C2.047 15.019 2.024 15.995 2 17 C2.976 16.977 3.952 16.954 4.957 16.93 C6.229 16.912 7.502 16.894 8.812 16.875 C10.077 16.852 11.342 16.829 12.645 16.805 C16 17 16 17 19 19 C19.438 22.438 19.438 22.438 19 26 C16.62 28.537 15.257 28.977 11.766 29.293 C10.605 29.258 9.445 29.223 8.25 29.188 C7.08 29.16 5.909 29.133 4.703 29.105 C3.811 29.071 2.919 29.036 2 29 C2.052 30.338 2.052 30.338 2.105 31.703 C2.133 32.874 2.16 34.044 2.188 35.25 C2.24 36.99 2.24 36.99 2.293 38.766 C1.977 42.249 1.503 43.602 -1 46 C-4.067 46.447 -6.021 46.63 -8.676 44.922 C-10.717 41.96 -10.285 39.35 -10.188 35.812 C-10.16 34.54 -10.133 33.268 -10.105 31.957 C-10.071 30.981 -10.036 30.005 -10 29 C-10.964 29.046 -11.928 29.093 -12.922 29.141 C-14.185 29.177 -15.448 29.213 -16.75 29.25 C-18.629 29.32 -18.629 29.32 -20.547 29.391 C-24 29 -24 29 -26.426 27.145 C-28 25 -28 25 -28.438 22.438 C-27.899 19.44 -27.494 18.736 -25 17 C-22.35 16.783 -19.949 16.716 -17.312 16.812 C-16.611 16.826 -15.909 16.84 -15.186 16.854 C-13.457 16.889 -11.728 16.943 -10 17 C-10.046 15.952 -10.093 14.904 -10.141 13.824 C-10.178 12.445 -10.215 11.066 -10.25 9.688 C-10.284 8.997 -10.317 8.307 -10.352 7.596 C-10.45 2.492 -10.45 2.492 -8.18 0.012 C-5.088 -1.423 -3.212 -0.978 0 0 Z " fill="#0AAE98" transform="translate(282,127)"/>
<path d="M0 0 C4.553 0.983 6.673 3.746 9.152 7.465 C9.657 12.109 8.952 14.732 6.152 18.465 C1.931 21.279 -1.887 21.148 -6.848 20.465 C-9.424 18.58 -10.444 17.271 -11.848 14.465 C-12.296 9.98 -12.536 6.755 -9.91 2.965 C-6.309 0.025 -4.519 -0.308 0 0 Z " fill="#06AD96" transform="translate(163.84765625,361.53515625)"/>
</svg>