<svg width="32" height="32" viewBox="0 0 32 32" fill="none" xmlns="http://www.w3.org/2000/svg">
<rect width="32" height="32" rx="8" fill="#2C2C2C"/>
<path d="M21.9833 14.3574L21.5002 15.1962C21.2641 15.6059 21.7371 16.3208 22.5566 16.7928C23.3761 17.2648 24.2318 17.3153 24.4678 16.9056L24.951 16.0669L21.9833 14.3574Z" fill="#6562F1"/>
<path d="M18.7657 7.44141L17.9858 8.79536C17.5551 9.54311 18.4183 10.8476 19.9138 11.7091C21.4093 12.5705 22.9709 12.6627 23.4016 11.9149L24.1815 10.561L18.7657 7.44141Z" fill="#E2AC40"/>
<path d="M18.5527 10.6295C18.6231 10.7083 18.6983 10.7864 18.7784 10.8639L19.7307 9.21063L19.4599 9.05469L18.5527 10.6295Z" fill="#F2C34E"/>
<path d="M19.7793 11.6305C19.8235 11.6574 19.8683 11.684 19.9137 11.7102C19.9591 11.7364 20.0046 11.7618 20.0501 11.7865L20.9645 10.1989L20.6937 10.043L19.7793 11.6305Z" fill="#F2C34E"/>
<path d="M21.5308 12.3455L22.4298 10.7849L22.159 10.6289L21.2148 12.2679C21.3219 12.2982 21.4272 12.324 21.5308 12.3455Z" fill="#F2C34E"/>
<path d="M15.4826 8.87942L14.7599 7.49414L9.21875 10.3853L9.94153 11.7705C10.3407 12.5356 11.9047 12.5086 13.4349 11.7103C14.965 10.9119 15.8818 9.64449 15.4826 8.87942Z" fill="#6562F1"/>
<path d="M13.9587 9L13.6816 9.14458L14.6032 10.9108C14.6862 10.8367 14.7646 10.7618 14.8384 10.686L13.9587 9Z" fill="#8380F3"/>
<path d="M12.6989 9.96289L12.4219 10.1075L13.2948 11.7804C13.3412 11.7576 13.3877 11.7341 13.4342 11.7099C13.4807 11.6857 13.5265 11.661 13.5718 11.6359L12.6989 9.96289Z" fill="#8380F3"/>
<path d="M12.1108 12.2115L11.1403 10.3516L10.8633 10.4961L11.7919 12.2758C11.896 12.2588 12.0023 12.2374 12.1108 12.2115Z" fill="#8380F3"/>
<path d="M22.2529 7.64904C20.7574 6.7876 19.1958 6.69544 18.7651 7.44319C18.3344 8.19096 19.1976 9.49548 20.6931 10.3569C22.1886 11.2184 23.7501 11.3106 24.1809 10.5628C24.6116 9.81502 23.7484 8.5105 22.2529 7.64904Z" fill="#F2C34E"/>
<path d="M12.7122 10.325C14.2423 9.52665 15.1592 8.25925 14.76 7.49418C14.3608 6.72911 12.7968 6.75609 11.2667 7.55445C9.73652 8.3528 8.81969 9.62021 9.21887 10.3853C9.61805 11.1504 11.1821 11.1234 12.7122 10.325Z" fill="#8380F3"/>
<path d="M9.88148 7.3746L9.69727 7.12214C9.88712 6.98359 10.0882 6.84985 10.2948 6.72461L10.4568 6.99187C10.2577 7.11249 10.0642 7.24123 9.88148 7.3746Z" fill="#BEBEBE"/>
<path d="M7.78803 10.4234C7.50931 9.594 8.08398 8.45138 9.28776 7.44141L9.48861 7.68082C8.40224 8.5923 7.851 9.62974 8.08424 10.3238L7.78803 10.4234Z" fill="#BEBEBE"/>
<path d="M20.0129 13.1149C19.6251 12.9849 19.2516 12.816 18.8978 12.6108C18.3114 12.273 17.8017 11.8588 17.4238 11.413L17.6622 11.2109C18.0171 11.6296 18.4983 12.02 19.0538 12.34C19.3892 12.5346 19.7435 12.6948 20.1112 12.8183L20.0129 13.1149Z" fill="#BEBEBE"/>
<path d="M17.1179 10.9974C17.0025 10.8178 16.9116 10.6235 16.8477 10.4198L17.147 10.3301C17.2029 10.5069 17.2822 10.6755 17.3827 10.8314L17.1179 10.9974Z" fill="#BEBEBE"/>
<path d="M16.8477 13.2437C16.4776 12.9802 16.0495 12.8096 15.5996 12.7463C15.1496 12.6831 14.6911 12.7289 14.2627 12.8801L14.1602 12.585C14.6355 12.4175 15.144 12.3667 15.6431 12.4369C16.1421 12.5071 16.6169 12.6961 17.0276 12.9882L16.8477 13.2437Z" fill="#BEBEBE"/>
<path d="M17.5562 16.6656C17.4403 14.9436 16.2295 13.6228 14.8519 13.7155L13.293 13.8205L13.7127 20.0564L15.2717 19.9514C16.6493 19.8587 17.6721 18.3876 17.5562 16.6656Z" fill="#DFDFDF"/>
<path d="M17.5556 16.6655C17.5521 16.6132 17.5476 16.5613 17.542 16.5098L15.7793 16.6284L15.8003 16.9402L17.563 16.8216C17.5615 16.7698 17.5591 16.7177 17.5556 16.6655Z" fill="#EDEDED"/>
<path d="M17.0303 14.9785L15.2461 15.0986L15.2671 15.4104L17.1957 15.2806C17.1458 15.1772 17.0906 15.0763 17.0303 14.9785Z" fill="#EDEDED"/>
<path d="M17.383 18.0879L15.418 18.2202L15.4389 18.532L17.2596 18.4094C17.3062 18.3044 17.3474 18.1971 17.383 18.0879Z" fill="#EDEDED"/>
<path d="M13.7129 20.0563C15.0905 19.9636 16.1133 18.4924 15.9974 16.7704C15.8815 15.0484 14.6708 13.7277 13.2932 13.8204C11.9156 13.9131 10.8928 15.3842 11.0087 17.1062C11.1246 18.8282 12.3353 20.149 13.7129 20.0563Z" fill="#EDEDED"/>
<path d="M19.1188 13.8425L17.5652 13.6758L16.8984 19.8901L18.452 20.0568C19.31 20.1489 20.1549 18.8324 20.339 17.1163C20.5231 15.4003 19.9768 13.9345 19.1188 13.8425Z" fill="#E2AC40"/>
<path d="M20.2666 15.3793L18.4611 15.1855L18.4277 15.4963L20.3233 15.6997C20.3077 15.5895 20.2888 15.4827 20.2666 15.3793Z" fill="#F2C34E"/>
<path d="M18.6583 16.7793L18.625 17.09L20.3206 17.272C20.3274 17.2206 20.3336 17.1689 20.3393 17.1168C20.3449 17.0647 20.3498 17.0129 20.354 16.9612L18.6583 16.7793Z" fill="#F2C34E"/>
<path d="M20.0224 18.4966L18.3244 18.3145L18.291 18.6252L19.8991 18.7977C19.9427 18.7016 19.9838 18.6012 20.0224 18.4966Z" fill="#F2C34E"/>
<path d="M18.7863 16.9508C18.9704 15.2348 18.4241 13.769 17.5661 13.677C16.7081 13.5849 15.8632 14.9014 15.6791 16.6174C15.495 18.3335 16.0413 19.7992 16.8993 19.8913C17.7573 19.9834 18.6021 18.6669 18.7863 16.9508Z" fill="#F2C34E"/>
<path d="M22.3556 24.0908L21.9382 23.8125L21.3132 22.25L21.0007 18.8125H10.3757V20.375L9.75066 22.5625V23.8125L9.48796 24.0752C9.44038 24.1228 9.40264 24.1793 9.37689 24.2414C9.35114 24.3036 9.33789 24.3702 9.33789 24.4375C9.33789 24.5048 9.35114 24.5714 9.37689 24.6336C9.40264 24.6957 9.44038 24.7522 9.48796 24.7998L9.5676 24.8794C9.68481 24.9967 9.84378 25.0625 10.0095 25.0625H21.9918C22.1575 25.0625 22.3165 24.9967 22.4337 24.8794C22.4873 24.8258 22.5284 24.761 22.5539 24.6896C22.5794 24.6182 22.5888 24.5421 22.5813 24.4666C22.5738 24.3912 22.5497 24.3184 22.5107 24.2534C22.4717 24.1884 22.4187 24.1329 22.3556 24.0908Z" fill="#8380F3"/>
<path d="M10.5366 16.8247L13.0225 16.4696C13.7517 16.3654 14.4934 16.386 15.2158 16.5305L16.3704 16.7614C16.9536 16.878 17.5501 16.9141 18.1431 16.8684L20.535 16.6844C20.6283 16.6773 20.7221 16.6911 20.8093 16.725C20.8965 16.7589 20.9751 16.812 21.039 16.8803C21.103 16.9486 21.1509 17.0304 21.179 17.1196C21.2072 17.2089 21.2149 17.3033 21.2017 17.396L20.9994 18.8122L18.6669 19.3953C17.7335 19.6286 16.76 19.6518 15.8165 19.4631C14.7076 19.2413 13.5601 19.3128 12.4872 19.6704L10.3744 20.3747V18.4997L10.0447 17.6756C10.0096 17.5877 9.99482 17.493 10.0016 17.3986C10.0084 17.3042 10.0366 17.2126 10.0839 17.1306C10.1313 17.0487 10.1967 16.9786 10.2751 16.9256C10.3535 16.8726 10.4429 16.8381 10.5366 16.8247Z" fill="#5350EF"/>
<path d="M17.7545 18.338C17.0064 18.4449 16.2459 18.4305 15.5024 18.2953L15.3202 18.2621C13.9306 18.0095 12.4973 18.1811 11.2067 18.7547L11.1207 18.7942L10.375 19.1408V20.3744L12.4879 19.6701C13.5607 19.3125 14.7083 19.241 15.8172 19.4628C16.7606 19.6515 17.7342 19.6283 18.6676 19.395L21 18.8119L21.1364 17.8574L17.7545 18.338Z" fill="#6562F1"/>
<path d="M12.2665 19.3405L10.8561 18.668L8.16602 24.3094L9.57638 24.9819C10.3553 25.3534 11.5889 24.3916 12.3318 22.8337C13.0746 21.2759 13.0454 19.7119 12.2665 19.3405Z" fill="#DFDFDF"/>
<path d="M13.7274 23.5258L13.4453 23.3913C13.9851 22.2593 14.1235 21.0762 13.7897 20.4473L14.0657 20.3008C14.4496 21.0239 14.3168 22.2898 13.7274 23.5258Z" fill="#6562F1"/>
<path d="M11.5749 24.0312L9.86693 23.2168L9.73242 23.4989L11.3587 24.2743C11.4317 24.1981 11.5038 24.117 11.5749 24.0312Z" fill="#EDEDED"/>
<path d="M12.8391 21.1715L11.1892 20.3848L11.0547 20.6668L12.7863 21.4925C12.8081 21.3834 12.8258 21.2764 12.8391 21.1715Z" fill="#EDEDED"/>
<path d="M10.699 21.8828L10.5645 22.1649L12.2623 22.9745C12.2857 22.9283 12.3087 22.8816 12.3313 22.8343C12.3539 22.787 12.3757 22.7397 12.3968 22.6924L10.699 21.8828Z" fill="#EDEDED"/>
<path d="M10.9216 22.161C11.6645 20.6032 11.6352 19.0392 10.8563 18.6678C10.0774 18.2964 8.84374 19.2581 8.1009 20.816C7.35805 22.3738 7.3873 23.9378 8.16622 24.3092C8.94515 24.6807 10.1788 23.7189 10.9216 22.161Z" fill="#EDEDED"/>
<path d="M23.251 17.0918L23.9677 15.8474L23.6969 15.6914L22.9512 16.9861C23.0491 17.0267 23.1492 17.062 23.251 17.0918Z" fill="#8380F3"/>
<path d="M22.0918 16.4703L22.7859 15.2653L22.5151 15.1094L21.8574 16.2511C21.9312 16.3287 22.0095 16.4019 22.0918 16.4703Z" fill="#8380F3"/>
<path d="M9.2389 17.0426L8.92773 17.0137C8.96693 16.6067 9.04718 16.2046 9.16724 15.8137C9.364 15.1661 9.65251 14.5761 10.0016 14.1074L10.2522 14.2941C9.92442 14.7342 9.65264 15.2911 9.46624 15.9046C9.35232 16.2753 9.27615 16.6565 9.2389 17.0426Z" fill="#BEBEBE"/>
<path d="M10.5594 13.9344L10.3379 13.714C10.4868 13.561 10.6555 13.4286 10.8396 13.3203L10.9945 13.5917C10.8349 13.6861 10.6885 13.8013 10.5594 13.9344Z" fill="#BEBEBE"/>
<path d="M23.8391 14.5664C23.0196 14.0944 22.1889 14.0005 21.9837 14.3568C21.7785 14.7131 22.2764 15.3846 23.0959 15.8566C23.9154 16.3287 24.7461 16.4225 24.9514 16.0662C25.1566 15.71 24.6586 15.0385 23.8391 14.5664Z" fill="#8380F3"/>
</svg>
