<svg width="20" height="21" viewBox="0 0 20 21" fill="none" xmlns="http://www.w3.org/2000/svg">
<path d="M3.00001 17.5C2.71668 17.5 2.47918 17.4042 2.28751 17.2125C2.09584 17.0208 2.00001 16.7833 2.00001 16.5C2.00001 16.2167 2.09584 15.9792 2.28751 15.7875C2.47918 15.5958 2.71668 15.5 3.00001 15.5H4.00001V8.5C4.00001 7.11667 4.41668 5.8875 5.25001 4.8125C6.08334 3.7375 7.16668 3.03333 8.50001 2.7V2C8.50001 1.58333 8.64584 1.22917 8.93751 0.9375C9.22918 0.645833 9.58334 0.5 10 0.5C10.4167 0.5 10.7708 0.645833 11.0625 0.9375C11.3542 1.22917 11.5 1.58333 11.5 2V2.7C12.8333 3.03333 13.9167 3.7375 14.75 4.8125C15.5833 5.8875 16 7.11667 16 8.5V15.5H17C17.2833 15.5 17.5208 15.5958 17.7125 15.7875C17.9042 15.9792 18 16.2167 18 16.5C18 16.7833 17.9042 17.0208 17.7125 17.2125C17.5208 17.4042 17.2833 17.5 17 17.5H3.00001ZM10 20.5C9.45001 20.5 8.97918 20.3042 8.58751 19.9125C8.19584 19.5208 8.00001 19.05 8.00001 18.5H12C12 19.05 11.8042 19.5208 11.4125 19.9125C11.0208 20.3042 10.55 20.5 10 20.5ZM1.00001 8.5C0.716677 8.5 0.479177 8.39167 0.28751 8.175C0.0958433 7.95833 0.0166766 7.70833 0.0500099 7.425C0.183343 6.175 0.533343 5.0125 1.10001 3.9375C1.66668 2.8625 2.39168 1.925 3.27501 1.125C3.49168 0.941667 3.73751 0.858333 4.01251 0.875C4.28751 0.891667 4.50834 1.01667 4.67501 1.25C4.84168 1.48333 4.90834 1.73333 4.87501 2C4.84168 2.26667 4.71668 2.5 4.50001 2.7C3.85001 3.31667 3.31668 4.03333 2.90001 4.85C2.48334 5.66667 2.20834 6.55 2.07501 7.5C2.04168 7.78333 1.92501 8.02083 1.72501 8.2125C1.52501 8.40417 1.28334 8.5 1.00001 8.5ZM19 8.5C18.7167 8.5 18.475 8.40417 18.275 8.2125C18.075 8.02083 17.9583 7.78333 17.925 7.5C17.7917 6.55 17.5167 5.66667 17.1 4.85C16.6833 4.03333 16.15 3.31667 15.5 2.7C15.2833 2.5 15.1583 2.26667 15.125 2C15.0917 1.73333 15.1583 1.48333 15.325 1.25C15.4917 1.01667 15.7125 0.891667 15.9875 0.875C16.2625 0.858333 16.5083 0.941667 16.725 1.125C17.6083 1.925 18.3333 2.8625 18.9 3.9375C19.4667 5.0125 19.8167 6.175 19.95 7.425C19.9833 7.70833 19.9042 7.95833 19.7125 8.175C19.5208 8.39167 19.2833 8.5 19 8.5Z" fill="#E5E5E5"/>
</svg>
