<svg width="24" height="24" viewBox="0 0 24 24" fill="none" xmlns="http://www.w3.org/2000/svg">
<path d="M5.24996 9.75003H18.75C18.8983 9.75 19.0432 9.70599 19.1666 9.62358C19.2899 9.54116 19.386 9.42404 19.4427 9.28702C19.4995 9.14999 19.5143 8.99922 19.4854 8.85375C19.4565 8.70829 19.3851 8.57467 19.2802 8.46978L12.5302 1.71978C12.4606 1.6501 12.3779 1.59483 12.287 1.55712C12.196 1.51941 12.0985 1.5 12 1.5C11.9015 1.5 11.804 1.51941 11.713 1.55712C11.622 1.59483 11.5393 1.6501 11.4697 1.71978L4.71971 8.46978C4.61486 8.57467 4.54345 8.70829 4.51452 8.85375C4.4856 8.99922 4.50045 9.14999 4.5572 9.28702C4.61396 9.42404 4.71006 9.54116 4.83337 9.62358C4.95668 9.70599 5.10165 9.75 5.24996 9.75003Z" fill="#E5E5E5"/>
<path d="M18.75 14.25H5.24996C5.10165 14.25 4.95668 14.294 4.83337 14.3764C4.71006 14.4589 4.61396 14.576 4.5572 14.713C4.50045 14.85 4.4856 15.0008 4.51452 15.1463C4.54345 15.2917 4.61486 15.4254 4.71971 15.5303L11.4697 22.2803C11.5393 22.3499 11.622 22.4052 11.713 22.4429C11.804 22.4806 11.9015 22.5 12 22.5C12.0984 22.5 12.196 22.4806 12.287 22.4429C12.3779 22.4052 12.4606 22.3499 12.5302 22.2803L19.2802 15.5303C19.3851 15.4254 19.4565 15.2917 19.4854 15.1463C19.5143 15.0008 19.4995 14.85 19.4427 14.713C19.386 14.576 19.2899 14.4589 19.1666 14.3764C19.0432 14.294 18.8983 14.25 18.75 14.25Z" fill="#E5E5E5"/>
</svg>
