<svg width="16" height="16" viewBox="0 0 16 16" fill="none" xmlns="http://www.w3.org/2000/svg">
<mask id="mask0_846_12102" style="mask-type:alpha" maskUnits="userSpaceOnUse" x="0" y="0" width="16" height="16">
<rect width="16" height="16" fill="#D9D9D9"/>
</mask>
<g mask="url(#mask0_846_12102)">
<path d="M2.66699 14C2.11144 14 1.63921 13.8056 1.25033 13.4167C0.861437 13.0278 0.666992 12.5556 0.666992 12C0.666992 11.4444 0.861437 10.9722 1.25033 10.5833C1.63921 10.1944 2.11144 10 2.66699 10C2.76699 10 2.86421 10.0083 2.95866 10.025C3.0531 10.0417 3.14477 10.0611 3.23366 10.0833L5.93366 6.36667C5.74477 6.13333 5.59755 5.87222 5.49199 5.58333C5.38644 5.29444 5.33366 4.98889 5.33366 4.66667C5.33366 3.93333 5.59477 3.30556 6.11699 2.78333C6.63921 2.26111 7.26699 2 8.00033 2C8.73366 2 9.36144 2.26111 9.88366 2.78333C10.4059 3.30556 10.667 3.93333 10.667 4.66667C10.667 4.98889 10.6114 5.29444 10.5003 5.58333C10.3892 5.87222 10.2392 6.13333 10.0503 6.36667L12.767 10.0833C12.8559 10.0611 12.9475 10.0417 13.042 10.025C13.1364 10.0083 13.2337 10 13.3337 10C13.8892 10 14.3614 10.1944 14.7503 10.5833C15.1392 10.9722 15.3337 11.4444 15.3337 12C15.3337 12.5556 15.1392 13.0278 14.7503 13.4167C14.3614 13.8056 13.8892 14 13.3337 14C12.7781 14 12.3059 13.8056 11.917 13.4167C11.5281 13.0278 11.3337 12.5556 11.3337 12C11.3337 11.7889 11.3642 11.5861 11.4253 11.3917C11.4864 11.1972 11.5725 11.0222 11.6837 10.8667L8.98366 7.15C8.9281 7.17222 8.87533 7.18889 8.82533 7.2C8.77532 7.21111 8.72255 7.22778 8.66699 7.25V10.1167C9.05588 10.25 9.37533 10.4889 9.62533 10.8333C9.87533 11.1778 10.0003 11.5667 10.0003 12C10.0003 12.5556 9.80588 13.0278 9.41699 13.4167C9.0281 13.8056 8.55588 14 8.00033 14C7.44477 14 6.97255 13.8056 6.58366 13.4167C6.19477 13.0278 6.00033 12.5556 6.00033 12C6.00033 11.5667 6.12533 11.1806 6.37533 10.8417C6.62533 10.5028 6.94477 10.2611 7.33366 10.1167V7.25C7.2781 7.22778 7.22533 7.21111 7.17532 7.2C7.12533 7.18889 7.07255 7.17222 7.01699 7.15L4.31699 10.8667C4.4281 11.0222 4.51421 11.1972 4.57533 11.3917C4.63644 11.5861 4.66699 11.7889 4.66699 12C4.66699 12.5556 4.47255 13.0278 4.08366 13.4167C3.69477 13.8056 3.22255 14 2.66699 14ZM2.66699 12.6667C2.85588 12.6667 3.01421 12.6028 3.14199 12.475C3.26977 12.3472 3.33366 12.1889 3.33366 12C3.33366 11.8111 3.26977 11.6528 3.14199 11.525C3.01421 11.3972 2.85588 11.3333 2.66699 11.3333C2.4781 11.3333 2.31977 11.3972 2.19199 11.525C2.06421 11.6528 2.00033 11.8111 2.00033 12C2.00033 12.1889 2.06421 12.3472 2.19199 12.475C2.31977 12.6028 2.4781 12.6667 2.66699 12.6667ZM8.00033 12.6667C8.18921 12.6667 8.34755 12.6028 8.47533 12.475C8.6031 12.3472 8.66699 12.1889 8.66699 12C8.66699 11.8111 8.6031 11.6528 8.47533 11.525C8.34755 11.3972 8.18921 11.3333 8.00033 11.3333C7.81144 11.3333 7.6531 11.3972 7.52533 11.525C7.39755 11.6528 7.33366 11.8111 7.33366 12C7.33366 12.1889 7.39755 12.3472 7.52533 12.475C7.6531 12.6028 7.81144 12.6667 8.00033 12.6667ZM13.3337 12.6667C13.5225 12.6667 13.6809 12.6028 13.8087 12.475C13.9364 12.3472 14.0003 12.1889 14.0003 12C14.0003 11.8111 13.9364 11.6528 13.8087 11.525C13.6809 11.3972 13.5225 11.3333 13.3337 11.3333C13.1448 11.3333 12.9864 11.3972 12.8587 11.525C12.7309 11.6528 12.667 11.8111 12.667 12C12.667 12.1889 12.7309 12.3472 12.8587 12.475C12.9864 12.6028 13.1448 12.6667 13.3337 12.6667ZM8.00033 6C8.36699 6 8.68088 5.86944 8.94199 5.60833C9.2031 5.34722 9.33366 5.03333 9.33366 4.66667C9.33366 4.3 9.2031 3.98611 8.94199 3.725C8.68088 3.46389 8.36699 3.33333 8.00033 3.33333C7.63366 3.33333 7.31977 3.46389 7.05866 3.725C6.79755 3.98611 6.66699 4.3 6.66699 4.66667C6.66699 5.03333 6.79755 5.34722 7.05866 5.60833C7.31977 5.86944 7.63366 6 8.00033 6Z" fill="#EBEFFF"/>
</g>
</svg>
