<svg width="24" height="24" viewBox="0 0 24 24" fill="none" xmlns="http://www.w3.org/2000/svg">
<mask id="mask0_586_4240" style="mask-type:alpha" maskUnits="userSpaceOnUse" x="0" y="0" width="24" height="24">
<rect width="24" height="24" fill="#D9D9D9"/>
</mask>
<g mask="url(#mask0_586_4240)">
<path d="M4 21C3.16667 21 2.45833 20.7083 1.875 20.125C1.29167 19.5417 1 18.8333 1 18C1 17.1667 1.29167 16.4583 1.875 15.875C2.45833 15.2917 3.16667 15 4 15C4.15 15 4.29583 15.0125 4.4375 15.0375C4.57917 15.0625 4.71667 15.0917 4.85 15.125L8.9 9.55C8.61667 9.2 8.39583 8.80833 8.2375 8.375C8.07917 7.94167 8 7.48333 8 7C8 5.9 8.39167 4.95833 9.175 4.175C9.95833 3.39167 10.9 3 12 3C13.1 3 14.0417 3.39167 14.825 4.175C15.6083 4.95833 16 5.9 16 7C16 7.48333 15.9167 7.94167 15.75 8.375C15.5833 8.80833 15.3583 9.2 15.075 9.55L19.15 15.125C19.2833 15.0917 19.4208 15.0625 19.5625 15.0375C19.7042 15.0125 19.85 15 20 15C20.8333 15 21.5417 15.2917 22.125 15.875C22.7083 16.4583 23 17.1667 23 18C23 18.8333 22.7083 19.5417 22.125 20.125C21.5417 20.7083 20.8333 21 20 21C19.1667 21 18.4583 20.7083 17.875 20.125C17.2917 19.5417 17 18.8333 17 18C17 17.6833 17.0458 17.3792 17.1375 17.0875C17.2292 16.7958 17.3583 16.5333 17.525 16.3L13.475 10.725C13.3917 10.7583 13.3125 10.7833 13.2375 10.8C13.1625 10.8167 13.0833 10.8417 13 10.875V15.175C13.5833 15.375 14.0625 15.7333 14.4375 16.25C14.8125 16.7667 15 17.35 15 18C15 18.8333 14.7083 19.5417 14.125 20.125C13.5417 20.7083 12.8333 21 12 21C11.1667 21 10.4583 20.7083 9.875 20.125C9.29167 19.5417 9 18.8333 9 18C9 17.35 9.1875 16.7708 9.5625 16.2625C9.9375 15.7542 10.4167 15.3917 11 15.175V10.875C10.9167 10.8417 10.8375 10.8167 10.7625 10.8C10.6875 10.7833 10.6083 10.7583 10.525 10.725L6.475 16.3C6.64167 16.5333 6.77083 16.7958 6.8625 17.0875C6.95417 17.3792 7 17.6833 7 18C7 18.8333 6.70833 19.5417 6.125 20.125C5.54167 20.7083 4.83333 21 4 21Z" fill="#E5E5E5"/>
</g>
</svg>
