<svg width="24" height="24" viewBox="0 0 24 24" fill="none" xmlns="http://www.w3.org/2000/svg">
<path d="M20 22V19C20 16.1716 20 14.7573 19.1213 13.8787C18.2426 13 16.8284 13 14 13H10C7.17157 13 5.75736 13 4.87868 13.8787C4 14.7573 4 16.1716 4 19C4 19.9319 4 20.3978 4.15224 20.7653C4.35523 21.2554 4.74458 21.6447 5.23463 21.8477C5.60218 22 6.06812 22 7 22" stroke="#EBEBEB" stroke-width="1.5" stroke-linecap="round" stroke-linejoin="round"/>
<path d="M9.5 13L12.5 22M7 13.5V22" stroke="#EBEBEB" stroke-width="1.5" stroke-linecap="round" stroke-linejoin="round"/>
<path d="M12 19H14.5C15.3284 19 16 19.6716 16 20.5C16 21.3284 15.3284 22 14.5 22H12.5" stroke="#EBEBEB" stroke-width="1.5" stroke-linecap="round" stroke-linejoin="round"/>
<path d="M15.5 6.5V5.5C15.5 3.567 13.933 2 12 2C10.067 2 8.5 3.567 8.5 5.5V6.5C8.5 8.433 10.067 10 12 10C13.933 10 15.5 8.433 15.5 6.5Z" stroke="#EBEBEB" stroke-width="1.5" stroke-linecap="round" stroke-linejoin="round"/>
</svg>
