<svg width="13" height="13" viewBox="0 0 13 13" fill="none" xmlns="http://www.w3.org/2000/svg">
<path d="M8.32347 8.5H9.07447C9.86588 8.5 10.6164 8.85153 11.1231 9.45951L11.8344 10.3131C12.5581 11.1815 11.9405 12.5 10.8101 12.5H1.83686C0.706408 12.5 0.0888664 11.1815 0.812563 10.3131L1.52388 9.45951C2.03053 8.85153 2.78106 8.5 3.57247 8.5H4.32347" stroke="#619DB5" stroke-linecap="round" stroke-linejoin="round"/>
<path d="M6.32357 3.16667C7.05995 3.16667 7.6569 2.56971 7.6569 1.83333C7.6569 1.09695 7.05995 0.5 6.32357 0.5C5.58719 0.5 4.99023 1.09695 4.99023 1.83333C4.99023 2.56971 5.58719 3.16667 6.32357 3.16667ZM6.32357 3.16667V9.83333" stroke="#619DB5" stroke-linecap="round"/>
</svg>
