<svg width="18" height="18" viewBox="0 0 18 18" fill="none" xmlns="http://www.w3.org/2000/svg">
<path d="M2 18C1.45 18 0.979167 17.8042 0.5875 17.4125C0.195833 17.0208 0 16.55 0 16V2C0 1.45 0.195833 0.979167 0.5875 0.5875C0.979167 0.195833 1.45 0 2 0H16C16.55 0 17.0208 0.195833 17.4125 0.5875C17.8042 0.979167 18 1.45 18 2V16C18 16.55 17.8042 17.0208 17.4125 17.4125C17.0208 17.8042 16.55 18 16 18H2ZM2 5.325H16V2H2V5.325ZM2 10.675H16V7.325H2V10.675ZM2 16H16V12.675H2V16ZM3 4.65V2.65H5V4.65H3ZM3 10V8H5V10H3ZM3 15.35V13.35H5V15.35H3Z" fill="#CACACA"/>
</svg>
