<svg width="22" height="18" viewBox="0 0 22 18" fill="none" xmlns="http://www.w3.org/2000/svg">
<path d="M3 18C2.16667 18 1.45833 17.7083 0.875 17.125C0.291667 16.5417 0 15.8333 0 15C0 14.1667 0.291667 13.4583 0.875 12.875C1.45833 12.2917 2.16667 12 3 12C3.15 12 3.29583 12.0125 3.4375 12.0375C3.57917 12.0625 3.71667 12.0917 3.85 12.125L7.9 6.55C7.61667 6.2 7.39583 5.80833 7.2375 5.375C7.07917 4.94167 7 4.48333 7 4C7 2.9 7.39167 1.95833 8.175 1.175C8.95833 0.391667 9.9 0 11 0C12.1 0 13.0417 0.391667 13.825 1.175C14.6083 1.95833 15 2.9 15 4C15 4.48333 14.9167 4.94167 14.75 5.375C14.5833 5.80833 14.3583 6.2 14.075 6.55L18.15 12.125C18.2833 12.0917 18.4208 12.0625 18.5625 12.0375C18.7042 12.0125 18.85 12 19 12C19.8333 12 20.5417 12.2917 21.125 12.875C21.7083 13.4583 22 14.1667 22 15C22 15.8333 21.7083 16.5417 21.125 17.125C20.5417 17.7083 19.8333 18 19 18C18.1667 18 17.4583 17.7083 16.875 17.125C16.2917 16.5417 16 15.8333 16 15C16 14.6833 16.0458 14.3792 16.1375 14.0875C16.2292 13.7958 16.3583 13.5333 16.525 13.3L12.475 7.725C12.3917 7.75833 12.3125 7.78333 12.2375 7.8C12.1625 7.81667 12.0833 7.84167 12 7.875V12.175C12.5833 12.375 13.0625 12.7333 13.4375 13.25C13.8125 13.7667 14 14.35 14 15C14 15.8333 13.7083 16.5417 13.125 17.125C12.5417 17.7083 11.8333 18 11 18C10.1667 18 9.45833 17.7083 8.875 17.125C8.29167 16.5417 8 15.8333 8 15C8 14.35 8.1875 13.7708 8.5625 13.2625C8.9375 12.7542 9.41667 12.3917 10 12.175V7.875C9.91667 7.84167 9.8375 7.81667 9.7625 7.8C9.6875 7.78333 9.60833 7.75833 9.525 7.725L5.475 13.3C5.64167 13.5333 5.77083 13.7958 5.8625 14.0875C5.95417 14.3792 6 14.6833 6 15C6 15.8333 5.70833 16.5417 5.125 17.125C4.54167 17.7083 3.83333 18 3 18ZM3 16C3.28333 16 3.52083 15.9042 3.7125 15.7125C3.90417 15.5208 4 15.2833 4 15C4 14.7167 3.90417 14.4792 3.7125 14.2875C3.52083 14.0958 3.28333 14 3 14C2.71667 14 2.47917 14.0958 2.2875 14.2875C2.09583 14.4792 2 14.7167 2 15C2 15.2833 2.09583 15.5208 2.2875 15.7125C2.47917 15.9042 2.71667 16 3 16ZM11 16C11.2833 16 11.5208 15.9042 11.7125 15.7125C11.9042 15.5208 12 15.2833 12 15C12 14.7167 11.9042 14.4792 11.7125 14.2875C11.5208 14.0958 11.2833 14 11 14C10.7167 14 10.4792 14.0958 10.2875 14.2875C10.0958 14.4792 10 14.7167 10 15C10 15.2833 10.0958 15.5208 10.2875 15.7125C10.4792 15.9042 10.7167 16 11 16ZM19 16C19.2833 16 19.5208 15.9042 19.7125 15.7125C19.9042 15.5208 20 15.2833 20 15C20 14.7167 19.9042 14.4792 19.7125 14.2875C19.5208 14.0958 19.2833 14 19 14C18.7167 14 18.4792 14.0958 18.2875 14.2875C18.0958 14.4792 18 14.7167 18 15C18 15.2833 18.0958 15.5208 18.2875 15.7125C18.4792 15.9042 18.7167 16 19 16ZM11 6C11.55 6 12.0208 5.80417 12.4125 5.4125C12.8042 5.02083 13 4.55 13 4C13 3.45 12.8042 2.97917 12.4125 2.5875C12.0208 2.19583 11.55 2 11 2C10.45 2 9.97917 2.19583 9.5875 2.5875C9.19583 2.97917 9 3.45 9 4C9 4.55 9.19583 5.02083 9.5875 5.4125C9.97917 5.80417 10.45 6 11 6Z" fill="#CACACA"/>
</svg>
