<svg width="28" height="28" viewBox="0 0 28 28" fill="none" xmlns="http://www.w3.org/2000/svg">
<ellipse cx="10.5007" cy="7.00016" rx="4.66667" ry="4.66667" fill="#619DB5"/>
<ellipse cx="10.5007" cy="19.8346" rx="8.16667" ry="4.66667" fill="#619DB5"/>
<path d="M24.4996 19.834C24.4996 21.767 22.1248 23.3339 19.2253 23.3339C20.0796 22.4002 20.667 21.2282 20.667 19.8356C20.667 18.4414 20.0782 17.2683 19.2224 16.334C22.1219 16.334 24.4996 17.901 24.4996 19.834Z" fill="#619DB5"/>
<path d="M20.9996 7.00098C20.9996 8.93397 19.4326 10.501 17.4996 10.501C17.0781 10.501 16.674 10.4265 16.2998 10.2899C16.8517 9.31913 17.167 8.19621 17.167 6.99967C17.167 5.80402 16.8522 4.68188 16.301 3.7116C16.6749 3.57532 17.0786 3.50098 17.4996 3.50098C19.4326 3.50098 20.9996 5.06798 20.9996 7.00098Z" fill="#619DB5"/>
</svg>
