<svg width="11" height="11" viewBox="0 0 11 11" fill="none" xmlns="http://www.w3.org/2000/svg">
<path d="M4.0325 6.7339C3.9735 5.8452 3.868 4.8953 3.4317 3.8212C3.0595 2.9051 3.1632 0.75 5.25 0.75C7.3368 0.75 7.4164 2.9051 7.0442 3.8212C6.6078 4.8953 6.5265 5.8452 6.4675 6.7339M9.75 9.7295H0.75V8.4838C0.75 8.0373 1.0164 7.6449 1.4028 7.5223L3.6576 6.8065C3.8184 6.7554 3.9848 6.7295 4.1521 6.7295H6.3479C6.5152 6.7295 6.6816 6.7554 6.8424 6.8065L9.0972 7.5223C9.4836 7.6449 9.75 8.0373 9.75 8.4838V9.7295Z" stroke="#EBEBEB" stroke-width="1.5" stroke-linecap="round" stroke-linejoin="round"/>
</svg>
