<svg width="36" height="36" viewBox="0 0 36 36" fill="none" xmlns="http://www.w3.org/2000/svg">
<path d="M0 10C0 4.47715 4.47715 0 10 0H26C31.5228 0 36 4.47715 36 10V26C36 31.5228 31.5228 36 26 36H10C4.47715 36 0 31.5228 0 26V10Z" fill="#00BBA7" fill-opacity="0.2"/>
<path d="M18.6665 24.3333C18.8778 24.4917 19.1237 24.5977 19.3839 24.6425C19.6442 24.6872 19.9114 24.6695 20.1635 24.5908C20.4155 24.512 20.6453 24.3745 20.8338 24.1896C21.0223 24.0046 21.1641 23.7775 21.2476 23.527C21.3312 23.2764 21.3539 23.0096 21.3141 22.7486C21.2743 22.4875 21.173 22.2396 21.0186 22.0254C20.8642 21.8112 20.661 21.6367 20.426 21.5163C20.1909 21.396 19.9306 21.3333 19.6665 21.3333H9.6665" stroke="#46ECD5" stroke-width="1.66667" stroke-linecap="round" stroke-linejoin="round"/>
<path d="M22.5832 14.6666C22.7962 14.3825 23.0784 14.1576 23.4028 14.0132C23.7273 13.8688 24.0832 13.8098 24.4369 13.8417C24.7906 13.8736 25.1303 13.9953 25.4237 14.1954C25.717 14.3955 25.9544 14.6673 26.1132 14.9849C26.272 15.3025 26.347 15.6555 26.3311 16.0102C26.3151 16.365 26.2087 16.7098 26.022 17.0119C25.8353 17.3139 25.5745 17.5633 25.2643 17.7362C24.9542 17.9091 24.605 17.9999 24.2498 17.9999H9.6665" stroke="#46ECD5" stroke-width="1.66667" stroke-linecap="round" stroke-linejoin="round"/>
<path d="M16.1665 11.6666C16.3778 11.5081 16.6237 11.4022 16.8839 11.3574C17.1442 11.3126 17.4114 11.3303 17.6635 11.4091C17.9155 11.4878 18.1453 11.6253 18.3338 11.8103C18.5223 11.9952 18.6641 12.2223 18.7476 12.4729C18.8312 12.7234 18.8539 12.9902 18.8141 13.2513C18.7743 13.5123 18.673 13.7602 18.5186 13.9744C18.3642 14.1887 18.161 14.3632 17.926 14.4835C17.6909 14.6038 17.4306 14.6666 17.1665 14.6666H9.6665" stroke="#46ECD5" stroke-width="1.66667" stroke-linecap="round" stroke-linejoin="round"/>
</svg>
