<svg width="24" height="24" viewBox="0 0 24 24" fill="none" xmlns="http://www.w3.org/2000/svg">
<path d="M22.7865 13.0732H17.3817L15.6508 17.5204C15.4972 17.915 15.1252 18.1778 14.6867 18.1996H14.6649C14.2487 18.1996 13.8544 17.9368 13.6789 17.5644L9.99853 9.61172L8.90317 12.394C8.72797 12.8102 8.33341 13.0732 7.89517 13.0732H1.23517C0.877813 13.0732 0.596773 12.7812 0.600613 12.4238C0.609013 11.6575 0.506533 10.9262 1.23517 10.9262H7.15045L8.88109 6.479C9.03469 6.08444 9.40693 5.82164 9.84517 5.7998C10.2832 5.7998 10.6775 6.04076 10.8529 6.43508L14.5333 14.3877L15.6289 11.6054C15.8041 11.1892 16.1985 10.9262 16.6367 10.9262H22.7771C22.9387 10.9262 23.0938 10.99 23.2087 11.1037C23.3235 11.2174 23.3889 11.3718 23.3905 11.5334L23.3999 12.4536C23.4007 12.5346 23.3855 12.6151 23.355 12.6902C23.3245 12.7654 23.2795 12.8337 23.2224 12.8914C23.1654 12.949 23.0975 12.9947 23.0227 13.026C22.9478 13.0572 22.8675 13.0732 22.7865 13.0732Z" fill="#4CAF50"/>
</svg>
