<svg width="36" height="36" viewBox="0 0 36 36" fill="none" xmlns="http://www.w3.org/2000/svg">
<path d="M0 10C0 4.47715 4.47715 0 10 0H26C31.5228 0 36 4.47715 36 10V26C36 31.5228 31.5228 36 26 36H10C4.47715 36 0 31.5228 0 26V10Z" fill="#00BBA7" fill-opacity="0.2"/>
<g clip-path="url(#clip0_1_6774)">
<path d="M26.3332 18.0001H24.2665C23.9023 17.9993 23.5479 18.1178 23.2574 18.3376C22.967 18.5573 22.7565 18.8661 22.6582 19.2167L20.6998 26.1834C20.6872 26.2267 20.6609 26.2647 20.6248 26.2917C20.5888 26.3188 20.5449 26.3334 20.4998 26.3334C20.4548 26.3334 20.4109 26.3188 20.3748 26.2917C20.3388 26.2647 20.3125 26.2267 20.2998 26.1834L15.6998 9.81675C15.6872 9.77347 15.6609 9.73546 15.6248 9.70841C15.5888 9.68137 15.5449 9.66675 15.4998 9.66675C15.4548 9.66675 15.4109 9.68137 15.3748 9.70841C15.3388 9.73546 15.3125 9.77347 15.2998 9.81675L13.3415 16.7834C13.2436 17.1327 13.0343 17.4405 12.7456 17.6601C12.4568 17.8797 12.1043 17.999 11.7415 18.0001H9.6665" stroke="#46ECD5" stroke-width="1.66667" stroke-linecap="round" stroke-linejoin="round"/>
</g>
<defs>
<clipPath id="clip0_1_6774">
<rect width="20" height="20" fill="white" transform="translate(8 8)"/>
</clipPath>
</defs>
</svg>
