<svg width="16" height="16" viewBox="0 0 16 16" fill="none" xmlns="http://www.w3.org/2000/svg">
<path d="M9.99974 10H10.7507C11.5422 10 12.2927 10.3515 12.7993 10.9595L13.5106 11.8131C14.2343 12.6815 13.6168 14 12.4863 14H3.51313C2.38268 14 1.76514 12.6815 2.48883 11.8131L3.20015 10.9595C3.7068 10.3515 4.45733 10 5.24874 10H5.99974" stroke="#619DB5" stroke-linecap="round" stroke-linejoin="round"/>
<path d="M7.99984 4.66667C8.73622 4.66667 9.33317 4.06971 9.33317 3.33333C9.33317 2.59695 8.73622 2 7.99984 2C7.26346 2 6.6665 2.59695 6.6665 3.33333C6.6665 4.06971 7.26346 4.66667 7.99984 4.66667ZM7.99984 4.66667V11.3333" stroke="#619DB5" stroke-linecap="round"/>
</svg>
