<svg width="48" height="48" viewBox="0 0 48 48" fill="none" xmlns="http://www.w3.org/2000/svg">
<rect width="48" height="48" rx="8" fill="#346778"/>
<path d="M31 15H17C15.5858 15 14.8787 15 14.4393 15.4122C14 15.8244 14 16.4878 14 17.8147V18.5045C14 19.5423 14 20.0612 14.2596 20.4914C14.5192 20.9216 14.9935 21.1886 15.942 21.7225L18.855 23.3624C19.4915 23.7206 19.8097 23.8998 20.0375 24.0976C20.512 24.5095 20.8041 24.9935 20.9364 25.5872C21 25.8722 21 26.2058 21 26.8729L21 29.5424C21 30.452 21 30.9067 21.2519 31.2613C21.5038 31.6158 21.9513 31.7907 22.8462 32.1406C24.7248 32.875 25.6641 33.2422 26.3321 32.8244C27 32.4066 27 31.4519 27 29.5424V26.8729C27 26.2058 27 25.8722 27.0636 25.5872C27.1959 24.9935 27.488 24.5095 27.9625 24.0976C28.1903 23.8998 28.5085 23.7206 29.145 23.3624L32.058 21.7225C33.0065 21.1886 33.4808 20.9216 33.7404 20.4914C34 20.0612 34 19.5423 34 18.5045V17.8147C34 16.4878 34 15.8244 33.5607 15.4122C33.1213 15 32.4142 15 31 15Z" stroke="#FDFDFC" stroke-width="1.5"/>
</svg>
