<svg width="24" height="24" viewBox="0 0 24 24" fill="none" xmlns="http://www.w3.org/2000/svg">
<path d="M15.5 12C15.5 13.933 13.933 15.5 12 15.5C10.067 15.5 8.5 13.933 8.5 12C8.5 10.067 10.067 8.5 12 8.5C13.933 8.5 15.5 10.067 15.5 12Z" stroke="#EBEBEB" stroke-width="1.5"/>
<path d="M21.011 14.0963C21.5329 13.9556 21.7939 13.8852 21.8969 13.7506C22 13.6161 22 13.3996 22 12.9667V11.033C22 10.6001 22 10.3836 21.8969 10.2491C21.7938 10.1145 21.5329 10.0441 21.011 9.9034C19.0606 9.37741 17.8399 7.33833 18.3433 5.40069C18.4817 4.86781 18.5509 4.60138 18.4848 4.44511C18.4187 4.28884 18.2291 4.18116 17.8497 3.96578L16.125 2.98655C15.7528 2.77521 15.5667 2.66954 15.3997 2.69204C15.2326 2.71454 15.0442 2.90255 14.6672 3.27855C13.208 4.7343 10.7936 4.73424 9.33434 3.27846C8.95743 2.90245 8.76898 2.71445 8.60193 2.69194C8.43489 2.66944 8.24877 2.77511 7.87653 2.98645L6.15184 3.96569C5.77253 4.18105 5.58287 4.28873 5.51678 4.44497C5.45068 4.60122 5.51987 4.86769 5.65825 5.40062C6.16137 7.33832 4.93972 9.37745 2.98902 9.90342C2.46712 10.0441 2.20617 10.1145 2.10308 10.249C2 10.3836 2 10.6001 2 11.033V12.9667C2 13.3996 2 13.6161 2.10308 13.7506C2.20615 13.8852 2.46711 13.9556 2.98902 14.0963C4.9394 14.6223 6.16008 16.6614 5.65672 18.599C5.51829 19.1319 5.44907 19.3983 5.51516 19.5546C5.58126 19.7109 5.77092 19.8186 6.15025 20.0339L7.87495 21.0132C8.24721 21.2245 8.43334 21.3302 8.6004 21.3077C8.76746 21.2852 8.95588 21.0971 9.33271 20.7211C10.7927 19.2642 13.2088 19.2641 14.6689 20.721C15.0457 21.0971 15.2341 21.2851 15.4012 21.3076C15.5682 21.3301 15.7544 21.2244 16.1266 21.0131L17.8513 20.0338C18.2307 19.8185 18.4204 19.7108 18.4864 19.5545C18.5525 19.3982 18.4833 19.1318 18.3448 18.5989C17.8412 16.6614 19.0609 14.6224 21.011 14.0963Z" stroke="#EBEBEB" stroke-width="1.5" stroke-linecap="round"/>
</svg>
