<svg width="28" height="28" viewBox="0 0 28 28" fill="none" xmlns="http://www.w3.org/2000/svg">
<path d="M3.5 12.1529C3.5 8.42241 3.5 6.55715 3.94043 5.92964C4.38087 5.30212 6.13471 4.70178 9.6424 3.50109L10.3107 3.27233C12.1391 2.64644 13.0534 2.3335 14 2.3335C14.9466 2.3335 15.8609 2.64644 17.6893 3.27233L18.3576 3.50109C21.8653 4.70178 23.6191 5.30212 24.0596 5.92964C24.5 6.55715 24.5 8.42241 24.5 12.1529C24.5 12.7164 24.5 13.3275 24.5 13.9901C24.5 20.5678 19.5545 23.7599 16.4517 25.1153C15.61 25.483 15.1891 25.6668 14 25.6668C12.8109 25.6668 12.39 25.483 11.5483 25.1153C8.44546 23.7599 3.5 20.5678 3.5 13.9901C3.5 13.3275 3.5 12.7164 3.5 12.1529Z" fill="#619DB5"/>
</svg>
