<svg width="28" height="28" viewBox="0 0 28 28" fill="none" xmlns="http://www.w3.org/2000/svg">
<path d="M23.3337 21.0002C23.3337 23.5775 19.155 25.6668 14.0003 25.6668C8.84567 25.6668 4.66699 23.5775 4.66699 21.0002V16.3031C5.25291 17.0225 6.08443 17.6202 7.00935 18.0826C8.84371 18.9998 11.3166 19.5418 14.0003 19.5418C16.684 19.5418 19.1569 18.9998 20.9913 18.0826C21.9162 17.6202 22.7477 17.0225 23.3337 16.3031V21.0002Z" fill="#619DB5"/>
<path d="M14.0003 12.5418C16.684 12.5418 19.1569 11.9998 20.9913 11.0826C21.9162 10.6202 22.7477 10.0225 23.3337 9.30312V14.0002C23.3337 14.5835 21.2503 15.8565 20.2087 16.5174C18.665 17.2892 16.4713 17.7918 14.0003 17.7918C11.5294 17.7918 9.33562 17.2892 7.79197 16.5174C6.41699 15.8299 4.66699 14.5835 4.66699 14.0002V9.30312C5.25291 10.0225 6.08443 10.6202 7.00935 11.0826C8.84371 11.9998 11.3166 12.5418 14.0003 12.5418Z" fill="#619DB5"/>
<path d="M20.2087 9.51737C18.665 10.2892 16.4713 10.7918 14.0003 10.7918C11.5294 10.7918 9.33562 10.2892 7.79197 9.51737C7.18396 9.27917 5.8072 8.51546 4.86705 7.28054C4.73186 7.10297 4.67347 6.87887 4.70507 6.65794C4.73222 6.46816 4.77233 6.26208 4.82541 6.13947C5.63317 3.97329 9.43375 2.3335 14.0003 2.3335C18.5669 2.3335 22.3675 3.97329 23.1752 6.13947C23.2283 6.26208 23.2684 6.46816 23.2956 6.65794C23.3272 6.87887 23.2688 7.10297 23.1336 7.28054C22.1934 8.51546 20.8167 9.27917 20.2087 9.51737Z" fill="#619DB5"/>
</svg>
