<svg width="20" height="22" viewBox="0 0 20 22" fill="none" xmlns="http://www.w3.org/2000/svg">
<path fill-rule="evenodd" clip-rule="evenodd" d="M8.75013 0C6.12678 0 4.00013 2.12665 4.00013 4.75C4.00013 7.37335 6.12678 9.5 8.75013 9.5C11.3735 9.5 13.5001 7.37335 13.5001 4.75C13.5001 2.12665 11.3735 0 8.75013 0ZM5.50013 4.75C5.50013 2.95507 6.95521 1.5 8.75013 1.5C10.5451 1.5 12.0001 2.95507 12.0001 4.75C12.0001 6.54493 10.5451 8 8.75013 8C6.95521 8 5.50013 6.54493 5.50013 4.75Z" fill="#FDFDFC"/>
<path d="M16.6056 13.3229C16.9029 13.6114 16.91 14.0862 16.6215 14.3834L14.7883 16.2723C14.6402 16.4249 14.4343 16.5075 14.2218 16.4995C14.0093 16.4914 13.8102 16.3936 13.674 16.2302L12.8405 15.2302C12.5753 14.912 12.6183 14.4391 12.9364 14.1739C13.2546 13.9087 13.7276 13.9516 13.9928 14.2698L14.2925 14.6294L15.5451 13.3388C15.8336 13.0415 16.3084 13.0344 16.6056 13.3229Z" fill="#FDFDFC"/>
<path fill-rule="evenodd" clip-rule="evenodd" d="M11.5248 11.2629C10.6521 11.0921 9.71859 11 8.75013 11C6.43658 11 4.30506 11.5259 2.72558 12.4143C1.16962 13.2896 0.000134216 14.6161 0.000134216 16.25L6.78762e-05 16.352C-0.00106187 17.5138 -0.00247979 18.972 1.27655 20.0135C1.90602 20.5261 2.78661 20.8906 3.97634 21.1315C5.16939 21.3729 6.72436 21.5 8.75013 21.5C11.6182 21.5 13.56 21.2461 14.8697 20.7585C16.0486 20.3197 16.7474 19.6766 17.1205 18.8672C18.5428 18.0466 19.5001 16.5101 19.5001 14.75C19.5001 12.1266 17.3735 10 14.7501 10C13.505 10 12.3718 10.4791 11.5248 11.2629ZM11.5001 14.75C11.5001 12.9551 12.9552 11.5 14.7501 11.5C16.5451 11.5 18.0001 12.9551 18.0001 14.75C18.0001 16.5449 16.5451 18 14.7501 18C12.9552 18 11.5001 16.5449 11.5001 14.75ZM10.5058 12.615C10.1823 13.2569 10.0001 13.9822 10.0001 14.75C10.0001 17.1393 11.7642 19.1166 14.061 19.4504C12.9902 19.7866 11.3281 20 8.75013 20C6.77591 20 5.33087 19.8752 4.27392 19.6613C3.21366 19.4467 2.59425 19.1522 2.22372 18.8504C1.54045 18.294 1.50013 17.5578 1.50013 16.25C1.50013 15.3987 2.12151 14.4751 3.46098 13.7217C4.77693 12.9815 6.64541 12.5 8.75013 12.5C9.35619 12.5 9.94409 12.54 10.5058 12.615Z" fill="#FDFDFC"/>
</svg>
