<svg width="28" height="28" viewBox="0 0 28 28" fill="none" xmlns="http://www.w3.org/2000/svg">
<path fill-rule="evenodd" clip-rule="evenodd" d="M11.629 4.86024C12.6623 3.04659 15.3371 3.04658 16.3704 4.86024L25.3212 20.5711C26.3254 22.3338 25.0183 24.5 22.9505 24.5H5.04887C2.98104 24.5 1.67396 22.3338 2.67819 20.5711L11.629 4.86024ZM15.1663 19.8333C15.1663 20.4777 14.6439 21 13.9996 21C13.3553 21 12.8329 20.4777 12.8329 19.8333C12.8329 19.189 13.3553 18.6667 13.9996 18.6667C14.6439 18.6667 15.1663 19.189 15.1663 19.8333ZM14.8746 10.5C14.8746 10.0168 14.4829 9.625 13.9996 9.625C13.5164 9.625 13.1246 10.0168 13.1246 10.5V16.3333C13.1246 16.8166 13.5164 17.2083 13.9996 17.2083C14.4829 17.2083 14.8746 16.8166 14.8746 16.3333V10.5Z" fill="#619DB5"/>
</svg>
